<?xml version="1.0" standalone="no"?>
<!DOCTYPE svg PUBLIC "-//W3C//DTD SVG 1.1//EN" "http://www.w3.org/Graphics/SVG/1.1/DTD/svg11.dtd" >
<svg>
<metadata>
Created by FontForge 20090622 at Mon Aug  7 18:02:42 2017
 By deploy user
Part of the digitally encoded machine readable outline data for producing the Typefaces provided is copyrighted &#194;&#169; 2007 Linotype GmbH, www.linotype.com. All rights reserved. This software is the property of Linotype GmbH, and may not be reproduced, used, displayed, modified, disclosed or transferred without the express written approval of Linotype GmbH.  The digitally encoded machine readable software for producing the Typefaces licensed to you is copyrighted (c) 1989, 1995 Adobe Systems. All Rights Reserved. This software is the property of Adobe Systems Incorporated and its licensors, and may not be reproduced, used, displayed, modified, disclosed or transferred without the express written approval of Adobe. Avenir is a trademark of Linotype GmbH and may be registered in certain jurisdictions. This typeface is original artwork of Adrian Frutiger. The design may be protected in certain jurisdictions.
</metadata>
<defs>
<font id="AvenirLTPro-Book" horiz-adv-x="556" >
  <font-face 
    font-family="Avenir LT Pro 45 Book"
    font-weight="400"
    font-stretch="normal"
    units-per-em="1000"
    panose-1="2 11 5 2 2 2 3 2 2 4"
    ascent="756"
    descent="-244"
    x-height="468"
    cap-height="708"
    bbox="-167 -288 1000 940"
    underline-thickness="50"
    underline-position="-100"
    unicode-range="U+000D-U+FB02"
  />
<missing-glyph horiz-adv-x="512" 
d="M278 117h-56v67h56v-67zM271 234h-46l-2 17q0 56 13 81q15 28 46 59q30 28 40 45.5t10 37.5q0 36 -22.5 60.5t-53.5 24.5q-71 0 -82 -95l-50 8q6 69 42 103t93 34q55 0 89.5 -36t34.5 -95q0 -34 -13 -60t-50 -60q-37 -33 -43 -52q-6 -20 -6 -72zM50 50h412v617h-412v-617
zM0 718h512v-718h-512v718z" />
    <glyph glyph-name="IJ" unicode="IJ" horiz-adv-x="688" 
d="M168 708v-708h-72v708h72zM220 130l73 15q21 -97 112 -97q125 0 125 176v484h72v-514q0 -38 -10 -73.5t-32 -67.5t-62.5 -51.5t-94.5 -19.5q-74 0 -122.5 38t-60.5 110z" />
    <glyph glyph-name="ij" unicode="ij" horiz-adv-x="475" 
d="M153 468v-468h-66v468h66zM168 648q0 -20 -14.5 -34t-33.5 -14t-33.5 14t-14.5 34t14.5 34t33.5 14t33.5 -14t14.5 -34zM204 -230l9 57l3 -1q22 -6 35 -6q43 0 57 27t14 71v550h66v-561v-4q0 -17 -0.5 -29t-7.5 -35.5t-19.5 -38.5t-39.5 -27.5t-65 -12.5q-28 0 -52 10z
M403 648q0 -20 -14.5 -34t-33.5 -14t-33.5 14t-14.5 34t14.5 34t33.5 14t33.5 -14t14.5 -34z" />
    <glyph glyph-name="napostrophe" unicode="&#x22;n" 
d="M67 468h68q3 -25 3 -75h2q22 38 66 62.5t91 24.5q88 0 132 -47.5t44 -135.5v-297h-66v259q0 82 -28 121.5t-99 39.5q-8 0 -20.5 -2t-35.5 -12.5t-40.5 -28t-31.5 -53.5t-14 -84v-240h-66v365q0 18 -5 103zM150 708l-76 -185h-57l62 185h71z" />
    <glyph glyph-name="fi" unicode="fi" horiz-adv-x="537" 
d="M290 468v-60h-111v-408h-66v408h-99v60h99v128q0 172 157 172q24 0 57 -7l-12 -60q-28 7 -51 7q-50 0 -67.5 -30.5t-17.5 -89.5v-120h111zM450 468v-468h-66v468h66zM465 648q0 -20 -14.5 -34t-33.5 -14t-33.5 14t-14.5 34t14.5 34t33.5 14t33.5 -14t14.5 -34z" />
    <glyph glyph-name="fl" unicode="fl" horiz-adv-x="537" 
d="M290 468v-60h-111v-408h-66v408h-99v60h99v128q0 172 157 172q24 0 57 -7l-12 -60q-28 7 -51 7q-50 0 -67.5 -30.5t-17.5 -89.5v-120h111zM450 756v-756h-66v756h66z" />
    <glyph glyph-name=".notdef" horiz-adv-x="512" 
d="M278 117h-56v67h56v-67zM271 234h-46l-2 17q0 56 13 81q15 28 46 59q30 28 40 45.5t10 37.5q0 36 -22.5 60.5t-53.5 24.5q-71 0 -82 -95l-50 8q6 69 42 103t93 34q55 0 89.5 -36t34.5 -95q0 -34 -13 -60t-50 -60q-37 -33 -43 -52q-6 -20 -6 -72zM50 50h412v617h-412v-617
zM0 718h512v-718h-512v718z" />
    <glyph glyph-name=".null" horiz-adv-x="500" 
 />
    <glyph glyph-name="nonmarkingreturn" horiz-adv-x="333" 
 />
    <glyph glyph-name="CR" unicode="&#xd;" horiz-adv-x="0" 
 />
    <glyph glyph-name="space" unicode=" " horiz-adv-x="278" 
 />
    <glyph glyph-name="exclam" unicode="!" horiz-adv-x="278" 
d="M175 708v-516h-72v516h72zM193 48q0 -22 -15.5 -38t-38.5 -16t-38.5 16t-15.5 38t15.5 38t38.5 16t38.5 -16t15.5 -38z" />
    <glyph glyph-name="quotedbl" unicode="&#x22;" horiz-adv-x="519" 
d="M157 473v235h60v-235h-60zM302 473v235h60v-235h-60z" />
    <glyph glyph-name="numbersign" unicode="#" 
d="M107 0l30 214h-102v60h110l22 162h-108v60h117l29 212h61l-29 -212h133l29 212h61l-29 -212h90v-60h-99l-22 -162h95v-60h-103l-30 -214h-61l30 214h-133l-30 -214h-61zM228 436l-22 -162h133l22 162h-133z" />
    <glyph glyph-name="dollar" unicode="$" 
d="M254 405v252q-53 -4 -87 -40t-34 -88q0 -47 31.5 -75t89.5 -49zM302 314v-264q49 0 89.5 30.5t41.5 97.5q1 94 -131 136zM254 49v279q-39 12 -69.5 26.5t-60.5 37.5t-46.5 57t-16.5 78q0 83 57.5 136t135.5 59v70h48v-68q112 0 185 -85l-56 -48q-20 34 -55.5 51t-73.5 16
v-267q44 -16 74 -30.5t63 -39.5t49.5 -61t16.5 -82q0 -82 -57.5 -135.5t-145.5 -58.5v-68h-48v66q-67 4 -123 34.5t-88 75.5l60 43q32 -40 75 -63.5t76 -22.5z" />
    <glyph glyph-name="percent" unicode="%" horiz-adv-x="833" 
d="M390 545q0 -74 -51 -124.5t-125 -50.5t-125 50.5t-51 124.5t51 124.5t125 50.5t125 -50.5t51 -124.5zM330 545q0 49 -34 82t-82 33t-82 -33t-34 -82t34 -82t82 -33t82 33t34 82zM795 163q0 -74 -51 -124.5t-125 -50.5t-125 50.5t-51 124.5t51 124.5t125 50.5t125 -50.5
t51 -124.5zM735 163q0 49 -34 82t-82 33t-82 -33t-34 -82t34 -82t82 -33t82 33t34 82zM667 712l-450 -743l-52 27l451 743z" />
    <glyph glyph-name="ampersand" unicode="&#x26;" horiz-adv-x="704" 
d="M659 383l-130 -219l159 -164h-102l-100 104q-47 -61 -97.5 -91.5t-118.5 -30.5q-92 0 -157 55t-65 147q0 133 161 209q-83 89 -83 166t50 122t127 45q74 0 122.5 -42t48.5 -117q0 -62 -43 -104.5t-113 -79.5l163 -168l97 168h81zM402 567q0 41 -28.5 67t-69.5 26
q-45 0 -75.5 -28.5t-30.5 -75.5q0 -32 25 -69t49 -58q3 2 23.5 13.5t26.5 15.5l23 15t23.5 19l16.5 20.5t13.5 26t3.5 28.5zM441 152l-187 196q-71 -40 -99.5 -75.5t-28.5 -89.5q0 -59 43 -97t102 -38q53 0 91.5 26.5t78.5 77.5z" />
    <glyph glyph-name="quotesingle" unicode="'" horiz-adv-x="260" 
d="M100 473v235h60v-235h-60z" />
    <glyph glyph-name="parenleft" unicode="(" horiz-adv-x="260" 
d="M199 736l53 -34q-69 -111 -100.5 -204t-31.5 -210t30 -206t98 -202l-53 -40q-67 93 -104 210t-37 238q0 117 37.5 234.5t107.5 213.5z" />
    <glyph glyph-name="parenright" unicode=")" horiz-adv-x="260" 
d="M61 -160l-53 34q69 111 100.5 204t31.5 210t-30 206t-98 202l53 40q67 -93 104 -210t37 -238q0 -117 -37.5 -234.5t-107.5 -213.5z" />
    <glyph glyph-name="asterisk" unicode="*" horiz-adv-x="444" 
d="M252 708v-143l140 45l21 -56l-141 -45l90 -121l-48 -36l-92 124l-92 -124l-48 36l90 121l-141 45l21 56l140 -45v143h60z" />
    <glyph glyph-name="plus" unicode="+" horiz-adv-x="666" 
d="M363 558v-225h225v-60h-225v-225h-60v225h-225v60h225v225h60z" />
    <glyph glyph-name="comma" unicode="," horiz-adv-x="278" 
d="M213 95l-81 -235h-67l67 235h81z" />
    <glyph glyph-name="hyphen" unicode="-" horiz-adv-x="333" 
d="M295 273v-66h-257v66h257z" />
    <glyph glyph-name="period" unicode="." horiz-adv-x="278" 
d="M193 48q0 -22 -15.5 -38t-38.5 -16t-38.5 16t-15.5 38t15.5 38t38.5 16t38.5 -16t15.5 -38z" />
    <glyph glyph-name="slash" unicode="/" horiz-adv-x="370" 
d="M365 706l-302 -724l-58 19l303 725z" />
    <glyph glyph-name="zero" unicode="0" 
d="M278 720q58 0 102.5 -23.5t70 -59.5t41.5 -87t21 -97.5t5 -98.5t-5 -98.5t-21 -97.5t-41.5 -87t-70 -59.5t-102.5 -23.5t-102.5 23.5t-70 59.5t-41.5 87t-21 97.5t-5 98.5t5 98.5t21 97.5t41.5 87t70 59.5t102.5 23.5zM278 654q-168 0 -168 -300t168 -300t168 300
t-168 300z" />
    <glyph glyph-name="one" unicode="1" 
d="M348 708v-708h-72v618l-127 -112l-45 54l180 148h64z" />
    <glyph glyph-name="two" unicode="2" 
d="M498 66v-66h-450v83l282 287q28 28 44 47.5t31 51t15 61.5q0 57 -39 90.5t-98 33.5q-53 0 -91.5 -30t-49.5 -81l-76 8q15 78 72.5 123.5t139.5 45.5q91 0 152.5 -48.5t61.5 -135.5q0 -39 -11 -73t-35.5 -67.5t-42.5 -53.5t-54 -55l-223 -221h372z" />
    <glyph glyph-name="three" unicode="3" 
d="M204 338v66h37q68 0 111.5 32t43.5 98q0 57 -34.5 88.5t-96.5 31.5q-90 0 -135 -78l-63 32q62 112 196 112q87 0 146 -49.5t59 -134.5q0 -56 -34.5 -101t-85.5 -61l3 -2q61 -13 98.5 -63t37.5 -117q0 -95 -65 -149.5t-161 -54.5q-167 0 -223 143l76 23q18 -51 54 -75.5
t99 -24.5q62 0 105 39.5t43 100.5q0 75 -51 109.5t-129 34.5h-31z" />
    <glyph glyph-name="four" unicode="4" 
d="M416 708v-474h102v-66h-102v-168h-72v168h-306v82l286 458h92zM344 234v402h-2l-244 -402h246z" />
    <glyph glyph-name="five" unicode="5" 
d="M465 708v-66h-290l-4 -213q42 17 95 17q99 0 161.5 -64.5t62.5 -162.5q0 -102 -67.5 -166.5t-170.5 -64.5q-68 0 -122 32.5t-82 93.5l71 31q21 -42 57 -66.5t82 -24.5q67 0 113.5 46t46.5 112q0 75 -49 121.5t-125 46.5q-74 0 -147 -39l7 367h361z" />
    <glyph glyph-name="six" unicode="6" 
d="M385 708l-193 -304l2 -2q34 24 98 24q93 0 154.5 -62t61.5 -157q0 -97 -65 -158t-165 -61t-165 61t-65 158q0 91 61 190l191 311h85zM120 207q0 -68 44 -110.5t114 -42.5t114 42.5t44 110.5t-44 110.5t-114 42.5t-114 -42.5t-44 -110.5z" />
    <glyph glyph-name="seven" unicode="7" 
d="M474 708v-66l-285 -642h-81l291 642h-345v66h420z" />
    <glyph glyph-name="eight" unicode="8" 
d="M186 375v2q-47 16 -76.5 60t-29.5 98q0 82 58 133.5t140 51.5t140 -51.5t58 -133.5q0 -54 -29.5 -98t-76.5 -60v-2q60 -16 96 -66.5t36 -119.5q0 -89 -65.5 -145t-158.5 -56t-158.5 56t-65.5 145q0 69 36 119.5t96 66.5zM404 529q0 54 -36 89.5t-90 35.5t-90 -35.5
t-36 -89.5t36 -89.5t90 -35.5t90 35.5t36 89.5zM430 199q0 63 -42 104t-110 41t-110 -41t-42 -104t42 -104t110 -41t110 41t42 104z" />
    <glyph glyph-name="nine" unicode="9" 
d="M171 0l193 304l-2 2q-34 -24 -98 -24q-93 0 -154.5 62t-61.5 157q0 97 65 158t165 61t165 -61t65 -158q0 -91 -61 -190l-191 -311h-85zM436 501q0 68 -44 110.5t-114 42.5t-114 -42.5t-44 -110.5t44 -110.5t114 -42.5t114 42.5t44 110.5z" />
    <glyph glyph-name="colon" unicode=":" horiz-adv-x="278" 
d="M193 419q0 -22 -15.5 -38t-38.5 -16t-38.5 16t-15.5 38t15.5 38t38.5 16t38.5 -16t15.5 -38zM193 48q0 -22 -15.5 -38t-38.5 -16t-38.5 16t-15.5 38t15.5 38t38.5 16t38.5 -16t15.5 -38z" />
    <glyph glyph-name="semicolon" unicode=";" horiz-adv-x="278" 
d="M213 95l-81 -235h-67l67 235h81zM202 419q0 -22 -15.5 -38t-38.5 -16t-38.5 16t-15.5 38t15.5 38t38.5 16t38.5 -16t15.5 -38z" />
    <glyph glyph-name="less" unicode="&#x3c;" horiz-adv-x="666" 
d="M588 564v-60l-429 -201l429 -201v-60l-510 238v46z" />
    <glyph glyph-name="equal" unicode="=" horiz-adv-x="666" 
d="M78 408h510v-60h-510v60zM78 258h510v-60h-510v60z" />
    <glyph glyph-name="greater" unicode="&#x3e;" horiz-adv-x="666" 
d="M78 504v60l510 -238v-46l-510 -238v60l429 201z" />
    <glyph glyph-name="question" unicode="?" horiz-adv-x="482" 
d="M276 243v-51h-72v83q1 30 17.5 57.5t40.5 49.5l47.5 44t40 51t16.5 62q0 51 -32.5 83t-84.5 32q-50 0 -84 -30t-43 -79l-75 9q11 77 66.5 121.5t134.5 44.5q83 0 136.5 -46.5t53.5 -128.5q0 -40 -12 -71.5t-30 -50l-39 -38.5l-39 -36.5t-30 -44t-12 -61.5zM300 48
q0 -22 -15.5 -38t-38.5 -16t-38.5 16t-15.5 38t15.5 38t38.5 16t38.5 -16t15.5 -38z" />
    <glyph glyph-name="at" unicode="@" horiz-adv-x="800" 
d="M503 409q0 42 -24.5 71t-56.5 29q-69 -3 -118.5 -72t-49.5 -144q0 -42 26.5 -69t67.5 -27q61 0 108 72t47 140zM538 487l22 63h56l-84 -282q-9 -31 -9 -51q0 -8 6.5 -14t16.5 -6q53 0 102 68.5t49 149.5q0 109 -85.5 183t-194.5 74q-128 0 -221 -96t-93 -222t93 -222
t221 -96q75 0 144 32.5t109 88.5h63q-48 -82 -133 -128.5t-183 -46.5q-154 0 -264 108t-110 264t110 264t264 108q141 0 240.5 -87t99.5 -220q0 -62 -23 -116.5t-58 -89.5t-74.5 -55.5t-74.5 -20.5q-63 0 -70 59h-2q-57 -59 -125 -59q-64 0 -103 41.5t-39 108.5
q0 109 66.5 195.5t167.5 86.5q86 0 114 -82h2z" />
    <glyph glyph-name="A" unicode="A" horiz-adv-x="686" 
d="M162 186l-78 -186h-84l308 708h70l308 -708h-84l-78 186h-362zM343 624l-154 -372h307z" />
    <glyph glyph-name="B" unicode="B" horiz-adv-x="630" 
d="M96 0v708h211q99 0 163.5 -42.5t64.5 -135.5q0 -58 -33 -100t-92 -55v-2q75 -6 117.5 -53t42.5 -124q0 -18 -4.5 -38.5t-21 -50t-43 -52t-75.5 -39t-114 -16.5h-216zM168 642v-244h145q59 0 101.5 30.5t42.5 93.5q0 15 -5 31.5t-19 38.5t-47 36t-80 14h-138zM168 338
v-272h138q83 0 134.5 33.5t51.5 100.5q0 138 -177 138h-147z" />
    <glyph glyph-name="C" unicode="C" horiz-adv-x="704" 
d="M620 154l59 -42q-37 -57 -107 -93.5t-155 -36.5q-159 0 -264 105.5t-105 266.5t105 266.5t264 105.5q70 0 135.5 -28t109.5 -84l-63 -47q-22 36 -75 64.5t-107 28.5q-132 0 -211.5 -89.5t-79.5 -216.5t79.5 -216.5t211.5 -89.5q134 0 203 106z" />
    <glyph glyph-name="D" unicode="D" horiz-adv-x="741" 
d="M86 0v708h235q68 0 133 -22.5t119 -65t87 -112t33 -154.5t-33 -154.5t-87 -112t-119 -65t-133 -22.5h-235zM158 642v-576h140q78 0 140 24t100 65t57.5 92t19.5 107t-19.5 107t-57.5 92t-100 65t-140 24h-140z" />
    <glyph glyph-name="E" unicode="E" horiz-adv-x="593" 
d="M168 335v-269h379v-66h-451v708h439v-66h-367v-241h343v-66h-343z" />
    <glyph glyph-name="F" unicode="F" 
d="M168 335v-335h-72v708h427v-66h-355v-241h330v-66h-330z" />
    <glyph glyph-name="G" unicode="G" horiz-adv-x="778" 
d="M673 631l-54 -53q-77 82 -202 82q-132 0 -211.5 -89.5t-79.5 -216.5t79.5 -216.5t211.5 -89.5q108 0 196 50v237h-169v66h241v-347q-121 -72 -268 -72q-159 0 -264 105.5t-105 266.5t105 266.5t264 105.5q161 0 256 -95z" />
    <glyph glyph-name="H" unicode="H" horiz-adv-x="722" 
d="M96 0v708h72v-307h386v307h72v-708h-72v335h-386v-335h-72z" />
    <glyph glyph-name="I" unicode="I" horiz-adv-x="264" 
d="M168 708v-708h-72v708h72z" />
    <glyph glyph-name="J" unicode="J" horiz-adv-x="482" 
d="M14 130l73 15q21 -97 112 -97q125 0 125 176v484h72v-514q0 -38 -10 -73.5t-32 -67.5t-62.5 -51.5t-94.5 -19.5q-74 0 -122.5 38t-60.5 110z" />
    <glyph glyph-name="K" unicode="K" horiz-adv-x="630" 
d="M168 708v-307h10l333 307h103l-357 -321l377 -387h-106l-348 365h-12v-365h-72v708h72z" />
    <glyph glyph-name="L" unicode="L" horiz-adv-x="500" 
d="M168 708v-642h330v-66h-402v708h72z" />
    <glyph glyph-name="M" unicode="M" horiz-adv-x="890" 
d="M206 708l239 -576l239 576h110v-708h-72v612h-2l-256 -612h-38l-256 612h-2v-612h-72v708h110z" />
    <glyph glyph-name="N" unicode="N" horiz-adv-x="778" 
d="M186 708l422 -600h2v600h72v-708h-90l-422 606h-2v-606h-72v708h90z" />
    <glyph glyph-name="O" unicode="O" horiz-adv-x="834" 
d="M786 354q0 -161 -105 -266.5t-264 -105.5t-264 105.5t-105 266.5t105 266.5t264 105.5t264 -105.5t105 -266.5zM708 354q0 127 -79.5 216.5t-211.5 89.5t-211.5 -89.5t-79.5 -216.5t79.5 -216.5t211.5 -89.5t211.5 89.5t79.5 216.5z" />
    <glyph glyph-name="P" unicode="P" horiz-adv-x="574" 
d="M96 0v708h206q110 0 171.5 -48t61.5 -141q0 -94 -61.5 -142t-171.5 -48h-134v-329h-72zM168 642v-247h116q91 0 132 34t41 90t-41 89.5t-132 33.5h-116z" />
    <glyph glyph-name="Q" unicode="Q" horiz-adv-x="834" 
d="M126 363q0 -123 76.5 -210t203.5 -87q126 0 202.5 87t76.5 210t-76.5 210t-202.5 87q-127 0 -203.5 -87t-76.5 -210zM811 66v-66h-405q-154 0 -256 103t-102 260t102 260t256 103q153 0 255 -103t102 -260q0 -207 -166 -295v-2h214z" />
    <glyph glyph-name="R" unicode="R" horiz-adv-x="593" 
d="M168 329v-329h-72v708h218q110 0 171.5 -48t61.5 -141q0 -75 -48 -125.5t-133 -57.5l204 -336h-88l-194 329h-120zM168 642v-247h128q91 0 132 34t41 90t-41 89.5t-132 33.5h-128z" />
    <glyph glyph-name="S" unicode="S" 
d="M494 640l-63 -49q-47 69 -137 69q-61 0 -106 -33t-45 -95q0 -52 37.5 -83.5t90.5 -48t106.5 -36t91 -63.5t37.5 -114q0 -92 -71.5 -148.5t-161.5 -56.5q-146 0 -223 105l65 47q50 -86 161 -86q58 0 105 35t47 94q0 47 -27 77.5t-67 44l-87.5 30.5t-87.5 35t-67 59
t-27 102q0 97 67.5 149t161.5 52q125 0 200 -86z" />
    <glyph glyph-name="T" unicode="T" horiz-adv-x="574" 
d="M323 642v-642h-72v642h-237v66h546v-66h-237z" />
    <glyph glyph-name="U" unicode="U" horiz-adv-x="686" 
d="M602 708v-444q0 -39 -6.5 -75t-24 -75t-45.5 -67t-75 -46.5t-108 -18.5t-108 18.5t-75 46.5t-45.5 67t-24 75t-6.5 75v444h72v-436q0 -58 14.5 -101.5t35 -66t48.5 -36t48 -17t41 -3.5t41 3.5t48 17t48.5 36t35 66t14.5 101.5v436h72z" />
    <glyph glyph-name="V" unicode="V" horiz-adv-x="611" 
d="M77 708l225 -600h2l232 600h78l-276 -708h-72l-269 708h80z" />
    <glyph glyph-name="W" unicode="W" horiz-adv-x="944" 
d="M80 708l170 -606h2l178 606h86l178 -606h2l168 606h80l-209 -708h-84l-178 606h-2l-178 -606h-84l-209 708h80z" />
    <glyph glyph-name="X" unicode="X" horiz-adv-x="630" 
d="M123 708l193 -283l198 283h90l-240 -336l260 -372h-95l-216 321l-217 -321h-90l259 372l-239 336h97z" />
    <glyph glyph-name="Y" unicode="Y" horiz-adv-x="574" 
d="M323 305v-305h-72v305l-265 403h90l211 -334l211 334h90z" />
    <glyph glyph-name="Z" unicode="Z" 
d="M527 708v-60l-413 -582h419v-66h-510v60l414 582h-408v66h498z" />
    <glyph glyph-name="bracketleft" unicode="[" horiz-adv-x="260" 
d="M227 732v-54h-96v-780h96v-54h-162v888h162z" />
    <glyph glyph-name="backslash" unicode="\" horiz-adv-x="370" 
d="M307 -18l-302 724l57 20l303 -725z" />
    <glyph glyph-name="bracketright" unicode="]" horiz-adv-x="260" 
d="M33 -156v54h96v780h-96v54h162v-888h-162z" />
    <glyph glyph-name="asciicircum" unicode="^" horiz-adv-x="666" 
d="M80 275l229 433h48l229 -433h-62l-191 361l-191 -361h-62z" />
    <glyph glyph-name="underscore" unicode="_" horiz-adv-x="500" 
d="M0 -125v50h500v-50h-500z" />
    <glyph glyph-name="grave" unicode="`" horiz-adv-x="240" 
d="M122 564l-132 144h91l100 -144h-59z" />
    <glyph glyph-name="a" unicode="a" horiz-adv-x="519" 
d="M339 287h33v12q0 121 -120 121q-82 0 -143 -55l-40 47q66 68 198 68q74 0 122.5 -42.5t48.5 -123.5v-209q0 -55 8 -105h-64q-6 34 -6 76h-2q-54 -88 -165 -88q-67 0 -114 36t-47 101q0 37 13 65t38 45t52 28t63.5 16t63.5 6.5t61 1.5zM372 233h-34q-218 0 -218 -99
q0 -43 32.5 -64.5t77.5 -21.5q69 0 105.5 42.5t36.5 108.5v34z" />
    <glyph glyph-name="b" unicode="b" horiz-adv-x="611" 
d="M72 0v756h66v-366h2q30 44 80.5 67t101.5 23q109 0 179 -70t70 -176t-70 -176t-179 -70q-51 0 -101.5 23t-80.5 67h-2v-78h-66zM499 234q0 80 -48.5 133t-128.5 53q-81 0 -134 -53.5t-53 -132.5t53 -132.5t134 -53.5q80 0 128.5 53t48.5 133z" />
    <glyph glyph-name="c" unicode="c" horiz-adv-x="482" 
d="M467 399l-54 -41q-17 27 -48.5 44.5t-68.5 17.5q-80 1 -128 -51.5t-48 -134.5t48 -134.5t128 -51.5q37 0 68.5 17.5t48.5 44.5l54 -41q-68 -79 -171 -81q-113 -1 -180.5 68.5t-67.5 177.5t67.5 177.5t180.5 68.5q103 -2 171 -81z" />
    <glyph glyph-name="d" unicode="d" horiz-adv-x="611" 
d="M539 756v-756h-66v78h-2q-30 -44 -80.5 -67t-101.5 -23q-109 0 -179 70t-70 176t70 176t179 70q51 0 101.5 -23t80.5 -67h2v366h66zM112 234q0 -80 48.5 -133t128.5 -53q81 0 134 53.5t53 132.5t-53 132.5t-134 53.5q-80 0 -128.5 -53t-48.5 -133z" />
    <glyph glyph-name="e" unicode="e" 
d="M508 216h-390q6 -71 54.5 -119.5t117.5 -48.5q49 0 89 23.5t61 57.5l51 -42q-78 -99 -201 -99q-104 0 -173 70t-69 176q0 105 68 175.5t168 70.5q103 -1 163.5 -67.5t60.5 -166.5v-30zM120 270h316q0 68 -41 109t-111 41q-64 0 -114 -46t-50 -104z" />
    <glyph glyph-name="f" unicode="f" horiz-adv-x="296" 
d="M290 468v-60h-111v-408h-66v408h-99v60h99v128q0 172 157 172q24 0 57 -7l-12 -60q-28 7 -51 7q-50 0 -67.5 -30.5t-17.5 -89.5v-120h111z" />
    <glyph glyph-name="g" unicode="g" horiz-adv-x="611" 
d="M59 -146l49 52q30 -40 77 -63t102 -23q95 0 138.5 50.5t43.5 133.5v84h-2q-59 -88 -175 -88q-102 0 -173 68t-71 170q0 103 67.5 172.5t170.5 69.5q114 0 181 -90h2v78h66v-464q0 -34 -5.5 -65t-22.5 -64.5t-43.5 -58t-73 -40.5t-106.5 -16q-137 0 -225 94zM120 240
q0 -74 50.5 -127t123.5 -53q75 0 127.5 50.5t49.5 129.5q0 76 -48.5 128t-128.5 52q-73 0 -123.5 -53t-50.5 -127z" />
    <glyph glyph-name="h" unicode="h" 
d="M72 0v756h66v-363h2q22 38 66 62.5t91 24.5q88 0 132 -47.5t44 -135.5v-297h-66v259q0 82 -28 121.5t-99 39.5q-8 0 -20.5 -2t-35.5 -12.5t-40.5 -28t-31.5 -53.5t-14 -84v-240h-66z" />
    <glyph glyph-name="i" unicode="i" horiz-adv-x="240" 
d="M153 468v-468h-66v468h66zM168 648q0 -20 -14.5 -34t-33.5 -14t-33.5 14t-14.5 34t14.5 34t33.5 14t33.5 -14t14.5 -34z" />
    <glyph glyph-name="j" unicode="j" horiz-adv-x="240" 
d="M-31 -230l9 57l3 -1q22 -6 35 -6q43 0 57 27t14 71v550h66v-561v-4q0 -17 -0.5 -29t-7.5 -35.5t-19.5 -38.5t-39.5 -27.5t-65 -12.5q-28 0 -52 10zM168 648q0 -20 -14.5 -34t-33.5 -14t-33.5 14t-14.5 34t14.5 34t33.5 14t33.5 -14t14.5 -34z" />
    <glyph glyph-name="k" unicode="k" horiz-adv-x="482" 
d="M138 756v-499l221 211h99l-233 -214l258 -254h-102l-243 246v-246h-66v756h66z" />
    <glyph glyph-name="l" unicode="l" horiz-adv-x="240" 
d="M153 756v-756h-66v756h66z" />
    <glyph glyph-name="m" unicode="m" horiz-adv-x="852" 
d="M72 0v364q0 16 -5 104h71v-71h2q23 39 65 61t86 22q111 0 149 -97q20 44 63 70.5t91 26.5q88 0 132 -47.5t44 -135.5v-297h-66v273q0 75 -26 111t-92 36q-68 0 -100 -49t-32 -122v-249h-66v273q0 75 -26 111t-92 36q-9 0 -20.5 -2t-32.5 -12.5t-37.5 -28t-29 -53.5
t-12.5 -84v-240h-66z" />
    <glyph glyph-name="n" unicode="n" 
d="M67 468h68q3 -25 3 -75h2q22 38 66 62.5t91 24.5q88 0 132 -47.5t44 -135.5v-297h-66v259q0 82 -28 121.5t-99 39.5q-8 0 -20.5 -2t-35.5 -12.5t-40.5 -28t-31.5 -53.5t-14 -84v-240h-66v365q0 18 -5 103z" />
    <glyph glyph-name="o" unicode="o" horiz-adv-x="593" 
d="M545 234q0 -106 -70 -176t-179 -70q-108 0 -178 70t-70 176t70 176t178 70q109 0 179 -70t70 -176zM473 234q0 80 -48.5 133t-128.5 53q-79 0 -127.5 -53t-48.5 -133t48.5 -133t127.5 -53q80 0 128.5 53t48.5 133z" />
    <glyph glyph-name="p" unicode="p" horiz-adv-x="611" 
d="M72 -288v756h66v-78h2q30 44 80.5 67t101.5 23q109 0 179 -70t70 -176t-70 -176t-179 -70q-51 0 -101.5 23t-80.5 67h-2v-366h-66zM499 234q0 80 -48.5 133t-128.5 53q-81 0 -134 -53.5t-53 -132.5t53 -132.5t134 -53.5q80 0 128.5 53t48.5 133z" />
    <glyph glyph-name="q" unicode="q" horiz-adv-x="611" 
d="M539 468v-756h-66v366h-2q-30 -44 -80.5 -67t-101.5 -23q-109 0 -179 70t-70 176t70 176t179 70q51 0 101.5 -23t80.5 -67h2v78h66zM112 234q0 -80 48.5 -133t128.5 -53q81 0 134 53.5t53 132.5t-53 132.5t-134 53.5q-80 0 -128.5 -53t-48.5 -133z" />
    <glyph glyph-name="r" unicode="r" horiz-adv-x="332" 
d="M79 0v322q0 10 -4 146h65v-87h2q16 42 54.5 70.5t95.5 28.5q28 0 49 -6l-13 -65q-13 5 -38 5q-69 0 -107 -47.5t-38 -102.5v-264h-66z" />
    <glyph glyph-name="s" unicode="s" horiz-adv-x="426" 
d="M379 396l-59 -39q-33 63 -101 63q-39 0 -68 -17.5t-29 -52.5q0 -31 21.5 -47t70.5 -27l67 -16q50 -12 82 -46t32 -82q0 -72 -53 -108t-129 -36q-119 0 -180 91l57 39q45 -70 123 -70q45 0 77.5 20t32.5 58q0 32 -23 48t-66 27l-64 15q-120 30 -120 123q0 69 50.5 105
t122.5 36q115 0 156 -84z" />
    <glyph glyph-name="t" unicode="t" horiz-adv-x="332" 
d="M314 468v-60h-135v-276q0 -49 17 -66.5t51 -17.5q35 0 68 18l3 -61q-37 -17 -89 -17q-47 0 -81.5 28t-34.5 97v295h-99v60h99v132h66v-132h135z" />
    <glyph glyph-name="u" unicode="u" 
d="M478 0h-68q-3 25 -3 75h-2q-22 -38 -66 -62.5t-91 -24.5q-88 0 -132 47.5t-44 135.5v297h66v-259q0 -82 28 -121.5t99 -39.5q8 0 20.5 2t35.5 12.5t40.5 28t31.5 53.5t14 84v240h66v-365q0 -18 5 -103z" />
    <glyph glyph-name="v" unicode="v" horiz-adv-x="482" 
d="M468 468l-190 -468h-74l-190 468h79l149 -394h2l149 394h75z" />
    <glyph glyph-name="w" unicode="w" horiz-adv-x="722" 
d="M14 468h78l108 -380h2l125 380h68l125 -380h2l108 380h78l-148 -468h-74l-124 384h-2l-124 -384h-74z" />
    <glyph glyph-name="x" unicode="x" horiz-adv-x="482" 
d="M0 0l193 250l-170 218h90l130 -175l124 175h82l-163 -218l196 -250h-90l-157 205l-151 -205h-84z" />
    <glyph glyph-name="y" unicode="y" horiz-adv-x="482" 
d="M99 468l147 -387l143 387h80l-234 -590q-23 -59 -56.5 -88.5t-90.5 -29.5q-38 0 -61 7l7 64q21 -11 50 -11q33 0 53.5 21t36.5 63l34 90l-192 474h83z" />
    <glyph glyph-name="z" unicode="z" horiz-adv-x="426" 
d="M393 468v-48l-274 -360h284v-60h-380v48l274 360h-260v60h356z" />
    <glyph glyph-name="braceleft" unicode="{" horiz-adv-x="260" 
d="M12 258v60q36 0 62.5 30.5t26.5 80.5v178q0 66 30 95.5t78 29.5h64v-60h-56q-17 0 -28 -7t-15.5 -21t-5.5 -25t-1 -30v-172q0 -63 -30.5 -93.5t-58.5 -34.5v-2q28 -4 58.5 -34.5t30.5 -93.5v-172q0 -19 1 -30t5.5 -25t15.5 -21t28 -7h56v-60h-64q-48 0 -78 29.5t-30 95.5
v178q0 50 -26.5 80.5t-62.5 30.5z" />
    <glyph glyph-name="bar" unicode="|" horiz-adv-x="222" 
d="M81 750h60v-1000h-60v1000z" />
    <glyph glyph-name="braceright" unicode="}" horiz-adv-x="260" 
d="M248 318v-60q-36 0 -62.5 -30.5t-26.5 -80.5v-178q0 -66 -30 -95.5t-78 -29.5h-64v60h56q17 0 28 7t15.5 21t5.5 25t1 30v172q0 63 30.5 93.5t58.5 34.5v2q-28 4 -58.5 34.5t-30.5 93.5v172q0 19 -1 30t-5.5 25t-15.5 21t-28 7h-56v60h64q48 0 78 -29.5t30 -95.5v-178
q0 -50 26.5 -80.5t62.5 -30.5z" />
    <glyph glyph-name="asciitilde" unicode="~" horiz-adv-x="666" 
d="M535 368l42 -40q-19 -27 -34.5 -44t-43.5 -33t-58 -16q-33 0 -51 4.5t-53 24.5l-24.5 14.5t-28 16t-26 11t-28.5 5.5q-50 0 -99 -73l-42 40q19 27 34.5 44t43.5 33t58 16q33 0 51 -4.5t53 -24.5l24.5 -14.5t28 -16t26 -11t28.5 -5.5q50 0 99 73z" />
    <glyph glyph-name="uni00A0" unicode="&#xa0;" horiz-adv-x="278" 
 />
    <glyph glyph-name="exclamdown" unicode="&#xa1;" horiz-adv-x="278" 
d="M103 -228v516h72v-516h-72zM85 432q0 22 15.5 38t38.5 16t38.5 -16t15.5 -38t-15.5 -38t-38.5 -16t-38.5 16t-15.5 38z" />
    <glyph glyph-name="cent" unicode="&#xa2;" 
d="M288 51v366q-64 -11 -101 -61.5t-37 -121.5t37 -121.5t101 -61.5zM336 419v-370q35 2 63 19t44 42l54 -41q-63 -75 -161 -80v-61h-48v63q-97 10 -153.5 77.5t-56.5 165.5t56.5 165.5t153.5 77.5v63h48v-61q98 -5 161 -80l-54 -41q-16 25 -44 42t-63 19z" />
    <glyph glyph-name="sterling" unicode="&#xa3;" 
d="M426 395v-60h-168v-275h253v-60h-427v60h102v275h-96v60h96v87q0 238 212 238q98 0 155 -60l-47 -51q-46 51 -111 51q-137 0 -137 -184v-81h168z" />
    <glyph glyph-name="currency" unicode="&#xa4;" 
d="M525 559l-53 -53q54 -69 53 -152q1 -83 -53 -152l53 -53l-44 -44l-53 53q-69 -53 -150 -53t-150 53l-53 -53l-44 44l53 53q-54 69 -53 152q-1 83 53 152l-53 53l44 44l53 -53q69 53 150 53t150 -53l53 53zM97 354q0 -78 53 -133.5t129 -55.5q75 0 127.5 55.5t52.5 133.5
t-52.5 133.5t-127.5 55.5q-76 0 -129 -55.5t-53 -133.5z" />
    <glyph glyph-name="yen" unicode="&#xa5;" 
d="M79 223h163v77l-7 12h-156v54h124l-205 342h85l195 -340l195 340h85l-204 -342h123v-54h-156l-7 -12v-77h163v-54h-163v-169h-72v169h-163v54z" />
    <glyph glyph-name="brokenbar" unicode="&#xa6;" horiz-adv-x="222" 
d="M81 675h60v-350h-60v350zM81 175h60v-350h-60v350z" />
    <glyph glyph-name="section" unicode="&#xa7;" 
d="M453 626l-59 -30q-32 64 -108 64q-32 0 -55 -10.5t-33.5 -26.5t-15 -29t-4.5 -24q0 -33 20.5 -53.5t60.5 -41.5l110 -56q97 -50 97 -139q0 -84 -87 -131q38 -26 53.5 -54.5t15.5 -70.5q0 -79 -54.5 -121t-133.5 -42q-69 0 -122 29t-76 86l66 32q16 -44 51.5 -65.5
t80.5 -21.5q47 0 81.5 24.5t34.5 77.5t-70 88l-137 67q-90 43 -90 130q0 88 104 134q-17 11 -24.5 17t-23 21.5t-22.5 36t-7 45.5q0 74 50.5 116t124.5 42q64 0 110 -26.5t62 -67.5zM242 404l-17 -7q-74 -31 -74 -84q0 -10 3 -20t7 -17t12.5 -14.5l13.5 -12t17 -11.5
t16.5 -9l18.5 -8.5t16 -7.5l66 -32q29 12 51 36.5t22 52.5q0 39 -26 63.5t-69 44.5z" />
    <glyph glyph-name="dieresis" unicode="&#xa8;" horiz-adv-x="240" 
d="M-27 647q0 20 14.5 35.5t36.5 15.5t36.5 -15.5t14.5 -35.5t-14.5 -35.5t-36.5 -15.5t-36.5 15.5t-14.5 35.5zM165 647q0 20 14.5 35.5t36.5 15.5t36.5 -15.5t14.5 -35.5t-14.5 -35.5t-36.5 -15.5t-36.5 15.5t-14.5 35.5z" />
    <glyph glyph-name="copyright" unicode="&#xa9;" horiz-adv-x="800" 
d="M545 282h57q-16 -72 -67 -114t-120 -42q-100 0 -161.5 64.5t-61.5 163.5q0 101 59.5 164t160.5 63q74 0 126.5 -39.5t62.5 -112.5h-56q-8 43 -44.5 70.5t-87.5 27.5q-74 0 -117.5 -48.5t-43.5 -122.5q0 -71 46 -123.5t117 -52.5q50 0 86 29t44 73zM25 352
q0 159 110 266.5t265 107.5t265 -107t110 -263q0 -159 -110 -266.5t-265 -107.5t-265 107t-110 263zM85 352q0 -133 91.5 -224.5t223.5 -91.5t223.5 92t91.5 228q0 134 -91.5 225t-223.5 91t-223.5 -92t-91.5 -228z" />
    <glyph glyph-name="ordfeminine" unicode="&#xaa;" horiz-adv-x="337" 
d="M136 424q-44 0 -74.5 21.5t-30.5 61.5q0 49 40 74.5t135 25.5h22v8q0 57 -64 57q-51 0 -89 -30l-32 37q43 41 119 41q67 0 96.5 -28.5t29.5 -61.5v-137q0 -21 5 -63h-54l-3 36h-1q-29 -42 -99 -42zM228 559h-13q-124 0 -124 -49q0 -18 17.5 -28t41.5 -10q78 0 78 87z" />
    <glyph glyph-name="guillemotleft" unicode="&#xab;" horiz-adv-x="482" 
d="M239 416l-115 -176l115 -176l-47 -33l-140 209l140 209zM421 416l-115 -176l115 -176l-47 -33l-140 209l140 209z" />
    <glyph glyph-name="logicalnot" unicode="&#xac;" horiz-adv-x="666" 
d="M588 408v-278h-60v218h-450v60h510z" />
    <glyph glyph-name="uni00AD" unicode="&#xad;" horiz-adv-x="333" 
d="M295 273v-66h-257v66h257z" />
    <glyph glyph-name="registered" unicode="&#xae;" horiz-adv-x="800" 
d="M261 136v431h158q78 0 115 -30t37 -94q0 -55 -31 -83t-83 -34l124 -190h-65l-118 185h-77v-185h-60zM321 513v-138h74q28 0 44.5 1.5t35 8t27.5 22t9 39.5q0 40 -26.5 53.5t-70.5 13.5h-93zM25 352q0 159 110 266.5t265 107.5t265 -107t110 -263q0 -159 -110 -266.5
t-265 -107.5t-265 107t-110 263zM85 352q0 -133 91.5 -224.5t223.5 -91.5t223.5 92t91.5 228q0 134 -91.5 225t-223.5 91t-223.5 -92t-91.5 -228z" />
    <glyph glyph-name="macron" unicode="&#xaf;" horiz-adv-x="240" 
d="M255 654v-54h-270v54h270z" />
    <glyph glyph-name="degree" unicode="&#xb0;" horiz-adv-x="400" 
d="M349 571q0 -65 -42.5 -107t-106.5 -42t-106.5 42t-42.5 107t42.5 107t106.5 42t106.5 -42t42.5 -107zM301 571q0 42 -29.5 71.5t-71.5 29.5t-71.5 -29.5t-29.5 -71.5t29.5 -71.5t71.5 -29.5t71.5 29.5t29.5 71.5z" />
    <glyph glyph-name="plusminus" unicode="&#xb1;" horiz-adv-x="666" 
d="M78 347v60h225v156h60v-156h225v-60h-225v-151h-60v151h-225zM78 48v60h510v-60h-510z" />
    <glyph glyph-name="twosuperior" unicode="&#xb2;" horiz-adv-x="361" 
d="M327 343v-54h-293v57l171 164q58 56 58 96q0 24 -24 42t-52 18q-32 0 -56 -16t-32 -40l-56 9q10 48 48.5 74.5t92.5 26.5q59 0 99 -29t40 -81q0 -30 -15.5 -59.5t-31 -46t-46.5 -44.5l-130 -117h227z" />
    <glyph glyph-name="threesuperior" unicode="&#xb3;" horiz-adv-x="361" 
d="M130 483v54h24q43 0 71.5 17.5t28.5 49.5q0 27 -20.5 44.5t-51.5 17.5q-29 0 -48 -10t-38 -36l-47 33q46 67 132 67q56 0 94.5 -29.5t38.5 -80.5q0 -34 -23 -61t-59 -38v-2q45 -7 70 -35.5t25 -68.5q0 -57 -42 -89.5t-105 -32.5q-109 0 -146 86l52 30q13 -32 35.5 -47
t62.5 -15q30 0 56.5 22t26.5 47q0 30 -24 53.5t-84 23.5h-29z" />
    <glyph glyph-name="acute" unicode="&#xb4;" horiz-adv-x="240" 
d="M250 708l-132 -144h-59l100 144h91z" />
    <glyph glyph-name="mu" unicode="&#xb5;" 
d="M72 -228v696h66v-259q0 -88 28 -124.5t99 -36.5q62 0 102 48t40 132v240h66v-365q0 -18 5 -103h-71v76h-2q-22 -36 -67 -62t-90 -26q-69 0 -110 29v-245h-66z" />
    <glyph glyph-name="paragraph" unicode="&#xb6;" horiz-adv-x="600" 
d="M513 708v-834h-66v780h-124v-780h-66v442q-91 0 -150 53.5t-59 132.5q0 97 61 151.5t167 54.5h237z" />
    <glyph glyph-name="periodcentered" unicode="&#xb7;" horiz-adv-x="278" 
d="M193 314q0 -22 -15.5 -38t-38.5 -16t-38.5 16t-15.5 38t15.5 38t38.5 16t38.5 -16t15.5 -38z" />
    <glyph glyph-name="cedilla" unicode="&#xb8;" horiz-adv-x="240" 
d="M156 0l-45 -60l2 -1q19 7 36 7q32 0 54.5 -20.5t22.5 -54.5q0 -43 -34.5 -65.5t-80.5 -22.5q-52 0 -97 24l16 36q34 -18 74 -18q25 0 43.5 11t18.5 34q0 14 -11 27t-38 13q-22 0 -46 -11l-18 17l62 84h41z" />
    <glyph glyph-name="onesuperior" unicode="&#xb9;" horiz-adv-x="361" 
d="M225 714v-425h-60v365l-82 -67l-29 38l117 89h54z" />
    <glyph glyph-name="ordmasculine" unicode="&#xba;" horiz-adv-x="385" 
d="M354 571q0 -63 -45.5 -105t-116.5 -42q-70 0 -115.5 42t-45.5 105q0 65 45.5 107t115.5 42q71 0 116.5 -42t45.5 -107zM294 571q0 42 -29 71.5t-73 29.5t-72.5 -29.5t-28.5 -71.5q0 -41 28.5 -70t72.5 -29t73 29t29 70z" />
    <glyph glyph-name="guillemotright" unicode="&#xbb;" horiz-adv-x="482" 
d="M243 64l115 176l-115 176l47 33l140 -209l-140 -209zM61 64l115 176l-115 176l47 33l140 -209l-140 -209z" />
    <glyph glyph-name="onequarter" unicode="&#xbc;" horiz-adv-x="834" 
d="M710 425v-277h60v-54h-60v-94h-60v94h-192v62l179 269h73zM205 -32l-52 32l451 740l51 -31zM650 148v217h-2l-136 -217h138zM235 714v-425h-60v365l-82 -67l-29 38l117 89h54z" />
    <glyph glyph-name="onehalf" unicode="&#xbd;" horiz-adv-x="834" 
d="M180 -32l-52 32l451 740l51 -31zM210 714v-425h-60v365l-82 -67l-29 38l117 89h54zM795 54v-54h-293v57l171 164q58 56 58 96q0 24 -24 42t-52 18q-32 0 -56 -16t-32 -40l-56 9q10 48 48.5 74.5t92.5 26.5q59 0 99 -29t40 -81q0 -30 -15.5 -59.5t-31 -46t-46.5 -44.5
l-130 -117h227z" />
    <glyph glyph-name="threequarters" unicode="&#xbe;" horiz-adv-x="834" 
d="M730 425v-277h60v-54h-60v-94h-60v94h-192v62l179 269h73zM245 -32l-52 32l451 740l51 -31zM670 148v217h-2l-136 -217h138zM139 483v54h24q43 0 71.5 18t28.5 53q0 24 -20.5 41t-51.5 17q-29 0 -48 -10t-38 -36l-47 33q46 67 132 67q56 0 94.5 -29.5t38.5 -80.5
q0 -34 -23 -61t-59 -38v-2q45 -7 70 -35.5t25 -68.5q0 -57 -42 -89.5t-105 -32.5q-109 0 -145 86l51 30q13 -32 35.5 -47t62.5 -15q30 0 56.5 22t26.5 47q0 30 -24 53.5t-84 23.5h-29z" />
    <glyph glyph-name="questiondown" unicode="&#xbf;" horiz-adv-x="482" 
d="M206 237v51h72v-83q-1 -30 -17.5 -57.5t-40.5 -49.5l-47.5 -44t-40 -51t-16.5 -62q0 -51 32.5 -83t84.5 -32q50 0 84 30t43 79l75 -9q-11 -77 -66.5 -121.5t-134.5 -44.5q-83 0 -136.5 46.5t-53.5 128.5q0 40 12 71.5t30 50l39 38.5l39 36.5t30 44t12 61.5zM182 432
q0 22 15.5 38t38.5 16t38.5 -16t15.5 -38t-15.5 -38t-38.5 -16t-38.5 16t-15.5 38z" />
    <glyph glyph-name="Agrave" unicode="&#xc0;" horiz-adv-x="686" 
d="M162 186l-78 -186h-84l308 708h70l308 -708h-84l-78 186h-362zM343 624l-154 -372h307zM345 739l-132 144h91l100 -144h-59z" />
    <glyph glyph-name="Aacute" unicode="&#xc1;" horiz-adv-x="686" 
d="M162 186l-78 -186h-84l308 708h70l308 -708h-84l-78 186h-362zM343 624l-154 -372h307zM473 883l-132 -144h-59l100 144h91z" />
    <glyph glyph-name="Acircumflex" unicode="&#xc2;" horiz-adv-x="686" 
d="M162 186l-78 -186h-84l308 708h70l308 -708h-84l-78 186h-362zM343 624l-154 -372h307zM383 883l109 -144h-66l-83 108l-83 -108h-66l109 144h80z" />
    <glyph glyph-name="Atilde" unicode="&#xc3;" horiz-adv-x="686" 
d="M162 186l-78 -186h-84l308 708h70l308 -708h-84l-78 186h-362zM343 624l-154 -372h307zM224 751h-43q18 104 92 104q27 0 73 -23q50 -23 67 -23q37 0 49 50h43q-18 -104 -92 -104q-23 0 -73 23q-44 23 -67 23q-37 0 -49 -50z" />
    <glyph glyph-name="Adieresis" unicode="&#xc4;" horiz-adv-x="686" 
d="M162 186l-78 -186h-84l308 708h70l308 -708h-84l-78 186h-362zM343 624l-154 -372h307zM196 822q0 20 14.5 35.5t36.5 15.5t36.5 -15.5t14.5 -35.5t-14.5 -35.5t-36.5 -15.5t-36.5 15.5t-14.5 35.5zM388 822q0 20 14.5 35.5t36.5 15.5t36.5 -15.5t14.5 -35.5t-14.5 -35.5
t-36.5 -15.5t-36.5 15.5t-14.5 35.5z" />
    <glyph glyph-name="Aring" unicode="&#xc5;" horiz-adv-x="686" 
d="M162 186l-78 -186h-84l308 708h70l308 -708h-84l-78 186h-362zM343 624l-154 -372h307zM403 825q0 25 -17.5 42t-42.5 17t-42.5 -17t-17.5 -42t17.5 -42t42.5 -17t42.5 17t17.5 42zM439 825q0 -40 -28.5 -67.5t-67.5 -27.5t-67.5 27.5t-28.5 67.5q0 39 28.5 67t67.5 28
t67.5 -28t28.5 -67z" />
    <glyph glyph-name="AE" unicode="&#xc6;" horiz-adv-x="944" 
d="M583 642v-241h276v-66h-276v-269h306v-66h-378v198h-298l-128 -198h-85l461 708h416v-66h-294zM255 264h256v378h-11z" />
    <glyph glyph-name="Ccedilla" unicode="&#xc7;" horiz-adv-x="704" 
d="M620 154l59 -42q-37 -57 -107 -93.5t-155 -36.5q-14 0 -21 2l-33 -44l2 -1q19 7 36 7q32 0 54.5 -20.5t22.5 -54.5q0 -43 -34.5 -65.5t-80.5 -22.5q-52 0 -97 24l16 36q34 -18 74 -18q25 0 43.5 11t18.5 34q0 14 -11 27t-38 13q-22 0 -46 -11l-18 17l52 71
q-137 20 -223 121.5t-86 245.5q0 161 105 266.5t264 105.5q70 0 135.5 -28t109.5 -84l-63 -47q-22 36 -75 64.5t-107 28.5q-132 0 -211.5 -89.5t-79.5 -216.5t79.5 -216.5t211.5 -89.5q134 0 203 106z" />
    <glyph glyph-name="Egrave" unicode="&#xc8;" horiz-adv-x="593" 
d="M168 335v-269h379v-66h-451v708h439v-66h-367v-241h343v-66h-343zM299 739l-132 144h91l100 -144h-59z" />
    <glyph glyph-name="Eacute" unicode="&#xc9;" horiz-adv-x="593" 
d="M168 335v-269h379v-66h-451v708h439v-66h-367v-241h343v-66h-343zM427 883l-132 -144h-59l100 144h91z" />
    <glyph glyph-name="Ecircumflex" unicode="&#xca;" horiz-adv-x="593" 
d="M168 335v-269h379v-66h-451v708h439v-66h-367v-241h343v-66h-343zM337 883l109 -144h-66l-83 108l-83 -108h-66l109 144h80z" />
    <glyph glyph-name="Edieresis" unicode="&#xcb;" horiz-adv-x="593" 
d="M168 335v-269h379v-66h-451v708h439v-66h-367v-241h343v-66h-343zM150 822q0 20 14.5 35.5t36.5 15.5t36.5 -15.5t14.5 -35.5t-14.5 -35.5t-36.5 -15.5t-36.5 15.5t-14.5 35.5zM342 822q0 20 14.5 35.5t36.5 15.5t36.5 -15.5t14.5 -35.5t-14.5 -35.5t-36.5 -15.5
t-36.5 15.5t-14.5 35.5z" />
    <glyph glyph-name="Igrave" unicode="&#xcc;" horiz-adv-x="264" 
d="M168 708v-708h-72v708h72zM134 739l-132 144h91l100 -144h-59z" />
    <glyph glyph-name="Iacute" unicode="&#xcd;" horiz-adv-x="264" 
d="M168 708v-708h-72v708h72zM262 883l-132 -144h-59l100 144h91z" />
    <glyph glyph-name="Icircumflex" unicode="&#xce;" horiz-adv-x="264" 
d="M168 708v-708h-72v708h72zM172 883l109 -144h-66l-83 108l-83 -108h-66l109 144h80z" />
    <glyph glyph-name="Idieresis" unicode="&#xcf;" horiz-adv-x="264" 
d="M168 708v-708h-72v708h72zM-15 822q0 20 14.5 35.5t36.5 15.5t36.5 -15.5t14.5 -35.5t-14.5 -35.5t-36.5 -15.5t-36.5 15.5t-14.5 35.5zM177 822q0 20 14.5 35.5t36.5 15.5t36.5 -15.5t14.5 -35.5t-14.5 -35.5t-36.5 -15.5t-36.5 15.5t-14.5 35.5z" />
    <glyph glyph-name="Eth" unicode="&#xd0;" horiz-adv-x="741" 
d="M86 0v347h-73v54h73v307h235q68 0 133 -22.5t119 -65t87 -112t33 -154.5t-33 -154.5t-87 -112t-119 -65t-133 -22.5h-235zM158 347v-281h140q78 0 140 24t100 65t57.5 92t19.5 107t-19.5 107t-57.5 92t-100 65t-140 24h-140v-241h258v-54h-258z" />
    <glyph glyph-name="Ntilde" unicode="&#xd1;" horiz-adv-x="778" 
d="M186 708l422 -600h2v600h72v-708h-90l-422 606h-2v-606h-72v708h90zM270 751h-43q18 104 92 104q27 0 73 -23q50 -23 67 -23q37 0 49 50h43q-18 -104 -92 -104q-23 0 -73 23q-44 23 -67 23q-37 0 -49 -50z" />
    <glyph glyph-name="Ograve" unicode="&#xd2;" horiz-adv-x="834" 
d="M786 354q0 -161 -105 -266.5t-264 -105.5t-264 105.5t-105 266.5t105 266.5t264 105.5t264 -105.5t105 -266.5zM708 354q0 127 -79.5 216.5t-211.5 89.5t-211.5 -89.5t-79.5 -216.5t79.5 -216.5t211.5 -89.5t211.5 89.5t79.5 216.5zM419 739l-132 144h91l100 -144h-59z
" />
    <glyph glyph-name="Oacute" unicode="&#xd3;" horiz-adv-x="834" 
d="M786 354q0 -161 -105 -266.5t-264 -105.5t-264 105.5t-105 266.5t105 266.5t264 105.5t264 -105.5t105 -266.5zM708 354q0 127 -79.5 216.5t-211.5 89.5t-211.5 -89.5t-79.5 -216.5t79.5 -216.5t211.5 -89.5t211.5 89.5t79.5 216.5zM547 883l-132 -144h-59l100 144h91z
" />
    <glyph glyph-name="Ocircumflex" unicode="&#xd4;" horiz-adv-x="834" 
d="M786 354q0 -161 -105 -266.5t-264 -105.5t-264 105.5t-105 266.5t105 266.5t264 105.5t264 -105.5t105 -266.5zM708 354q0 127 -79.5 216.5t-211.5 89.5t-211.5 -89.5t-79.5 -216.5t79.5 -216.5t211.5 -89.5t211.5 89.5t79.5 216.5zM457 883l109 -144h-66l-83 108
l-83 -108h-66l109 144h80z" />
    <glyph glyph-name="Otilde" unicode="&#xd5;" horiz-adv-x="834" 
d="M786 354q0 -161 -105 -266.5t-264 -105.5t-264 105.5t-105 266.5t105 266.5t264 105.5t264 -105.5t105 -266.5zM708 354q0 127 -79.5 216.5t-211.5 89.5t-211.5 -89.5t-79.5 -216.5t79.5 -216.5t211.5 -89.5t211.5 89.5t79.5 216.5zM298 751h-43q18 104 92 104
q27 0 73 -23q50 -23 67 -23q37 0 49 50h43q-18 -104 -92 -104q-23 0 -73 23q-44 23 -67 23q-37 0 -49 -50z" />
    <glyph glyph-name="Odieresis" unicode="&#xd6;" horiz-adv-x="834" 
d="M786 354q0 -161 -105 -266.5t-264 -105.5t-264 105.5t-105 266.5t105 266.5t264 105.5t264 -105.5t105 -266.5zM708 354q0 127 -79.5 216.5t-211.5 89.5t-211.5 -89.5t-79.5 -216.5t79.5 -216.5t211.5 -89.5t211.5 89.5t79.5 216.5zM270 822q0 20 14.5 35.5t36.5 15.5
t36.5 -15.5t14.5 -35.5t-14.5 -35.5t-36.5 -15.5t-36.5 15.5t-14.5 35.5zM462 822q0 20 14.5 35.5t36.5 15.5t36.5 -15.5t14.5 -35.5t-14.5 -35.5t-36.5 -15.5t-36.5 15.5t-14.5 35.5z" />
    <glyph glyph-name="multiply" unicode="&#xd7;" horiz-adv-x="666" 
d="M174 505l159 -159l158 159l43 -42l-159 -160l159 -159l-43 -43l-158 159l-159 -159l-42 43l159 159l-159 160z" />
    <glyph glyph-name="Oslash" unicode="&#xd8;" horiz-adv-x="834" 
d="M766 692l-76 -82q96 -102 96 -256q0 -161 -105 -266.5t-264 -105.5q-138 0 -236 81l-76 -81l-37 34l76 82q-96 102 -96 256q0 161 105 266.5t264 105.5q136 0 236 -81l76 81zM640 556l-411 -441q77 -67 188 -67q132 0 211.5 89.5t79.5 216.5q0 117 -68 202zM194 152
l411 441q-77 67 -188 67q-132 0 -211.5 -89.5t-79.5 -216.5q0 -119 68 -202z" />
    <glyph glyph-name="Ugrave" unicode="&#xd9;" horiz-adv-x="686" 
d="M602 708v-444q0 -39 -6.5 -75t-24 -75t-45.5 -67t-75 -46.5t-108 -18.5t-108 18.5t-75 46.5t-45.5 67t-24 75t-6.5 75v444h72v-436q0 -58 14.5 -101.5t35 -66t48.5 -36t48 -17t41 -3.5t41 3.5t48 17t48.5 36t35 66t14.5 101.5v436h72zM345 739l-132 144h91l100 -144h-59z
" />
    <glyph glyph-name="Uacute" unicode="&#xda;" horiz-adv-x="686" 
d="M602 708v-444q0 -39 -6.5 -75t-24 -75t-45.5 -67t-75 -46.5t-108 -18.5t-108 18.5t-75 46.5t-45.5 67t-24 75t-6.5 75v444h72v-436q0 -58 14.5 -101.5t35 -66t48.5 -36t48 -17t41 -3.5t41 3.5t48 17t48.5 36t35 66t14.5 101.5v436h72zM473 883l-132 -144h-59l100 144h91z
" />
    <glyph glyph-name="Ucircumflex" unicode="&#xdb;" horiz-adv-x="686" 
d="M602 708v-444q0 -39 -6.5 -75t-24 -75t-45.5 -67t-75 -46.5t-108 -18.5t-108 18.5t-75 46.5t-45.5 67t-24 75t-6.5 75v444h72v-436q0 -58 14.5 -101.5t35 -66t48.5 -36t48 -17t41 -3.5t41 3.5t48 17t48.5 36t35 66t14.5 101.5v436h72zM383 883l109 -144h-66l-83 108
l-83 -108h-66l109 144h80z" />
    <glyph glyph-name="Udieresis" unicode="&#xdc;" horiz-adv-x="686" 
d="M602 708v-444q0 -39 -6.5 -75t-24 -75t-45.5 -67t-75 -46.5t-108 -18.5t-108 18.5t-75 46.5t-45.5 67t-24 75t-6.5 75v444h72v-436q0 -58 14.5 -101.5t35 -66t48.5 -36t48 -17t41 -3.5t41 3.5t48 17t48.5 36t35 66t14.5 101.5v436h72zM196 822q0 20 14.5 35.5t36.5 15.5
t36.5 -15.5t14.5 -35.5t-14.5 -35.5t-36.5 -15.5t-36.5 15.5t-14.5 35.5zM388 822q0 20 14.5 35.5t36.5 15.5t36.5 -15.5t14.5 -35.5t-14.5 -35.5t-36.5 -15.5t-36.5 15.5t-14.5 35.5z" />
    <glyph glyph-name="Yacute" unicode="&#xdd;" horiz-adv-x="574" 
d="M323 305v-305h-72v305l-265 403h90l211 -334l211 334h90zM417 883l-132 -144h-59l100 144h91z" />
    <glyph glyph-name="Thorn" unicode="&#xde;" horiz-adv-x="574" 
d="M96 0v708h72v-156h160q92 0 149.5 -48.5t57.5 -140.5q0 -93 -57 -141.5t-150 -48.5h-160v-173h-72zM168 486v-247h116q27 0 47.5 1.5t45.5 9t41.5 20t27.5 36.5t11 57t-11 56.5t-27.5 36t-41.5 20t-45.5 9t-47.5 1.5h-116z" />
    <glyph glyph-name="germandbls" unicode="&#xdf;" horiz-adv-x="593" 
d="M150 550v-550h-66v544q0 99 49.5 161.5t161.5 62.5q83 0 137 -47.5t54 -129.5q0 -117 -116 -159v-2q84 -7 127.5 -65.5t43.5 -141.5q0 -106 -65.5 -170.5t-171.5 -64.5q-33 0 -58 8v57q20 -5 48 -5q80 0 127.5 47t47.5 129q0 175 -201 175v60q66 0 106 29.5t40 93.5
q0 58 -35 92t-88 34q-73 0 -107 -47.5t-34 -110.5z" />
    <glyph glyph-name="agrave" unicode="&#xe0;" horiz-adv-x="519" 
d="M339 287h33v12q0 121 -120 121q-82 0 -143 -55l-40 47q66 68 198 68q74 0 122.5 -42.5t48.5 -123.5v-209q0 -55 8 -105h-64q-6 34 -6 76h-2q-54 -88 -165 -88q-67 0 -114 36t-47 101q0 37 13 65t38 45t52 28t63.5 16t63.5 6.5t61 1.5zM372 233h-34q-218 0 -218 -99
q0 -43 32.5 -64.5t77.5 -21.5q69 0 105.5 42.5t36.5 108.5v34zM262 564l-132 144h91l100 -144h-59z" />
    <glyph glyph-name="aacute" unicode="&#xe1;" horiz-adv-x="519" 
d="M339 287h33v12q0 121 -120 121q-82 0 -143 -55l-40 47q66 68 198 68q74 0 122.5 -42.5t48.5 -123.5v-209q0 -55 8 -105h-64q-6 34 -6 76h-2q-54 -88 -165 -88q-67 0 -114 36t-47 101q0 37 13 65t38 45t52 28t63.5 16t63.5 6.5t61 1.5zM372 233h-34q-218 0 -218 -99
q0 -43 32.5 -64.5t77.5 -21.5q69 0 105.5 42.5t36.5 108.5v34zM390 708l-132 -144h-59l100 144h91z" />
    <glyph glyph-name="acircumflex" unicode="&#xe2;" horiz-adv-x="519" 
d="M339 287h33v12q0 121 -120 121q-82 0 -143 -55l-40 47q66 68 198 68q74 0 122.5 -42.5t48.5 -123.5v-209q0 -55 8 -105h-64q-6 34 -6 76h-2q-54 -88 -165 -88q-67 0 -114 36t-47 101q0 37 13 65t38 45t52 28t63.5 16t63.5 6.5t61 1.5zM372 233h-34q-218 0 -218 -99
q0 -43 32.5 -64.5t77.5 -21.5q69 0 105.5 42.5t36.5 108.5v34zM300 708l109 -144h-66l-83 108l-83 -108h-66l109 144h80z" />
    <glyph glyph-name="atilde" unicode="&#xe3;" horiz-adv-x="519" 
d="M339 287h33v12q0 121 -120 121q-82 0 -143 -55l-40 47q66 68 198 68q74 0 122.5 -42.5t48.5 -123.5v-209q0 -55 8 -105h-64q-6 34 -6 76h-2q-54 -88 -165 -88q-67 0 -114 36t-47 101q0 37 13 65t38 45t52 28t63.5 16t63.5 6.5t61 1.5zM372 233h-34q-218 0 -218 -99
q0 -43 32.5 -64.5t77.5 -21.5q69 0 105.5 42.5t36.5 108.5v34zM141 576h-43q18 104 92 104q27 0 73 -23q50 -23 67 -23q37 0 49 50h43q-18 -104 -92 -104q-23 0 -73 23q-44 23 -67 23q-37 0 -49 -50z" />
    <glyph glyph-name="adieresis" unicode="&#xe4;" horiz-adv-x="519" 
d="M339 287h33v12q0 121 -120 121q-82 0 -143 -55l-40 47q66 68 198 68q74 0 122.5 -42.5t48.5 -123.5v-209q0 -55 8 -105h-64q-6 34 -6 76h-2q-54 -88 -165 -88q-67 0 -114 36t-47 101q0 37 13 65t38 45t52 28t63.5 16t63.5 6.5t61 1.5zM372 233h-34q-218 0 -218 -99
q0 -43 32.5 -64.5t77.5 -21.5q69 0 105.5 42.5t36.5 108.5v34zM113 647q0 20 14.5 35.5t36.5 15.5t36.5 -15.5t14.5 -35.5t-14.5 -35.5t-36.5 -15.5t-36.5 15.5t-14.5 35.5zM305 647q0 20 14.5 35.5t36.5 15.5t36.5 -15.5t14.5 -35.5t-14.5 -35.5t-36.5 -15.5t-36.5 15.5
t-14.5 35.5z" />
    <glyph glyph-name="aring" unicode="&#xe5;" horiz-adv-x="519" 
d="M339 287h33v12q0 121 -120 121q-82 0 -143 -55l-40 47q66 68 198 68q74 0 122.5 -42.5t48.5 -123.5v-209q0 -55 8 -105h-64q-6 34 -6 76h-2q-54 -88 -165 -88q-67 0 -114 36t-47 101q0 37 13 65t38 45t52 28t63.5 16t63.5 6.5t61 1.5zM372 233h-34q-218 0 -218 -99
q0 -43 32.5 -64.5t77.5 -21.5q69 0 105.5 42.5t36.5 108.5v34zM320 650q0 25 -17.5 42t-42.5 17t-42.5 -17t-17.5 -42t17.5 -42t42.5 -17t42.5 17t17.5 42zM356 650q0 -40 -28.5 -67.5t-67.5 -27.5t-67.5 27.5t-28.5 67.5q0 39 28.5 67t67.5 28t67.5 -28t28.5 -67z" />
    <glyph glyph-name="ae" unicode="&#xe6;" horiz-adv-x="852" 
d="M804 216h-351v-9q0 -66 37.5 -112.5t99.5 -46.5q55 0 87.5 20t58.5 56l52 -41q-75 -95 -196 -95q-56 0 -103.5 27.5t-71.5 81.5q-35 -58 -84 -83.5t-124 -25.5q-67 0 -114 36t-47 101q0 145 228 145h111v29q-1 35 -14.5 60.5t-33.5 37.5t-38 17.5t-34 5.5q-83 0 -142 -56
l-41 48q73 68 186 68q53 0 95.5 -25.5t59.5 -64.5q22 41 69 65.5t98 24.5q100 -1 156 -66t56 -168v-30zM387 216h-137q-51 0 -90.5 -19.5t-39.5 -62.5t32.5 -64.5t77.5 -21.5q71 0 114 44.5t43 114.5v9zM453 270h285q0 66 -39.5 108t-104.5 42q-60 0 -100.5 -43t-40.5 -107z
" />
    <glyph glyph-name="ccedilla" unicode="&#xe7;" horiz-adv-x="482" 
d="M467 399l-54 -41q-17 27 -48.5 44.5t-68.5 17.5q-80 1 -128 -51.5t-48 -134.5t48 -134.5t128 -51.5q37 0 68.5 17.5t48.5 44.5l54 -41q-68 -79 -171 -81q-6 0 -7 1l-37 -49l2 -1q19 7 36 7q32 0 54.5 -20.5t22.5 -54.5q0 -43 -34.5 -65.5t-80.5 -22.5q-52 0 -97 24l16 36
q35 -18 74 -18q25 0 43.5 11t18.5 34q0 14 -11 27t-38 13q-22 0 -46 -11l-18 17l56 76q-93 13 -147.5 79.5t-54.5 162.5q0 108 67.5 177.5t180.5 68.5q103 -2 171 -81z" />
    <glyph glyph-name="egrave" unicode="&#xe8;" 
d="M508 216h-390q6 -71 54.5 -119.5t117.5 -48.5q49 0 89 23.5t61 57.5l51 -42q-78 -99 -201 -99q-104 0 -173 70t-69 176q0 105 68 175.5t168 70.5q103 -1 163.5 -67.5t60.5 -166.5v-30zM120 270h316q0 68 -41 109t-111 41q-64 0 -114 -46t-50 -104zM280 564l-132 144h91
l100 -144h-59z" />
    <glyph glyph-name="eacute" unicode="&#xe9;" 
d="M508 216h-390q6 -71 54.5 -119.5t117.5 -48.5q49 0 89 23.5t61 57.5l51 -42q-78 -99 -201 -99q-104 0 -173 70t-69 176q0 105 68 175.5t168 70.5q103 -1 163.5 -67.5t60.5 -166.5v-30zM120 270h316q0 68 -41 109t-111 41q-64 0 -114 -46t-50 -104zM408 708l-132 -144h-59
l100 144h91z" />
    <glyph glyph-name="ecircumflex" unicode="&#xea;" 
d="M508 216h-390q6 -71 54.5 -119.5t117.5 -48.5q49 0 89 23.5t61 57.5l51 -42q-78 -99 -201 -99q-104 0 -173 70t-69 176q0 105 68 175.5t168 70.5q103 -1 163.5 -67.5t60.5 -166.5v-30zM120 270h316q0 68 -41 109t-111 41q-64 0 -114 -46t-50 -104zM318 708l109 -144h-66
l-83 108l-83 -108h-66l109 144h80z" />
    <glyph glyph-name="edieresis" unicode="&#xeb;" 
d="M508 216h-390q6 -71 54.5 -119.5t117.5 -48.5q49 0 89 23.5t61 57.5l51 -42q-78 -99 -201 -99q-104 0 -173 70t-69 176q0 105 68 175.5t168 70.5q103 -1 163.5 -67.5t60.5 -166.5v-30zM120 270h316q0 68 -41 109t-111 41q-64 0 -114 -46t-50 -104zM131 647
q0 20 14.5 35.5t36.5 15.5t36.5 -15.5t14.5 -35.5t-14.5 -35.5t-36.5 -15.5t-36.5 15.5t-14.5 35.5zM323 647q0 20 14.5 35.5t36.5 15.5t36.5 -15.5t14.5 -35.5t-14.5 -35.5t-36.5 -15.5t-36.5 15.5t-14.5 35.5z" />
    <glyph glyph-name="igrave" unicode="&#xec;" horiz-adv-x="240" 
d="M153 468v-468h-66v468h66zM122 564l-132 144h91l100 -144h-59z" />
    <glyph glyph-name="iacute" unicode="&#xed;" horiz-adv-x="240" 
d="M153 468v-468h-66v468h66zM250 708l-132 -144h-59l100 144h91z" />
    <glyph glyph-name="icircumflex" unicode="&#xee;" horiz-adv-x="240" 
d="M153 468v-468h-66v468h66zM160 708l109 -144h-66l-83 108l-83 -108h-66l109 144h80z" />
    <glyph glyph-name="idieresis" unicode="&#xef;" horiz-adv-x="240" 
d="M153 468v-468h-66v468h66zM-27 647q0 20 14.5 35.5t36.5 15.5t36.5 -15.5t14.5 -35.5t-14.5 -35.5t-36.5 -15.5t-36.5 15.5t-14.5 35.5zM165 647q0 20 14.5 35.5t36.5 15.5t36.5 -15.5t14.5 -35.5t-14.5 -35.5t-36.5 -15.5t-36.5 15.5t-14.5 35.5z" />
    <glyph glyph-name="eth" unicode="&#xf0;" horiz-adv-x="593" 
d="M120 234q0 -80 48.5 -133t127.5 -53q80 0 128.5 53t48.5 133t-48.5 133t-128.5 53q-79 0 -127.5 -53t-48.5 -133zM455 714l-103 -54q96 -96 145 -194t48 -212q0 -49 -12.5 -93t-39.5 -84.5t-77.5 -64.5t-119.5 -24q-108 0 -178 70t-70 176t70 176t178 70q80 0 150 -58
l2 2q-63 119 -159 204l-110 -57l-36 36l108 56q-54 50 -95 79l60 37q69 -57 97 -83l102 53z" />
    <glyph glyph-name="ntilde" unicode="&#xf1;" 
d="M67 468h68q3 -25 3 -75h2q22 38 66 62.5t91 24.5q88 0 132 -47.5t44 -135.5v-297h-66v259q0 82 -28 121.5t-99 39.5q-8 0 -20.5 -2t-35.5 -12.5t-40.5 -28t-31.5 -53.5t-14 -84v-240h-66v365q0 18 -5 103zM159 576h-43q18 104 92 104q27 0 73 -23q50 -23 67 -23
q37 0 49 50h43q-18 -104 -92 -104q-23 0 -73 23q-44 23 -67 23q-37 0 -49 -50z" />
    <glyph glyph-name="ograve" unicode="&#xf2;" horiz-adv-x="593" 
d="M545 234q0 -106 -70 -176t-179 -70q-108 0 -178 70t-70 176t70 176t178 70q109 0 179 -70t70 -176zM473 234q0 80 -48.5 133t-128.5 53q-79 0 -127.5 -53t-48.5 -133t48.5 -133t127.5 -53q80 0 128.5 53t48.5 133zM299 564l-132 144h91l100 -144h-59z" />
    <glyph glyph-name="oacute" unicode="&#xf3;" horiz-adv-x="593" 
d="M545 234q0 -106 -70 -176t-179 -70q-108 0 -178 70t-70 176t70 176t178 70q109 0 179 -70t70 -176zM473 234q0 80 -48.5 133t-128.5 53q-79 0 -127.5 -53t-48.5 -133t48.5 -133t127.5 -53q80 0 128.5 53t48.5 133zM427 708l-132 -144h-59l100 144h91z" />
    <glyph glyph-name="ocircumflex" unicode="&#xf4;" horiz-adv-x="593" 
d="M545 234q0 -106 -70 -176t-179 -70q-108 0 -178 70t-70 176t70 176t178 70q109 0 179 -70t70 -176zM473 234q0 80 -48.5 133t-128.5 53q-79 0 -127.5 -53t-48.5 -133t48.5 -133t127.5 -53q80 0 128.5 53t48.5 133zM337 708l109 -144h-66l-83 108l-83 -108h-66l109 144h80
z" />
    <glyph glyph-name="otilde" unicode="&#xf5;" horiz-adv-x="593" 
d="M545 234q0 -106 -70 -176t-179 -70q-108 0 -178 70t-70 176t70 176t178 70q109 0 179 -70t70 -176zM473 234q0 80 -48.5 133t-128.5 53q-79 0 -127.5 -53t-48.5 -133t48.5 -133t127.5 -53q80 0 128.5 53t48.5 133zM178 576h-43q18 104 92 104q27 0 73 -23q50 -23 67 -23
q37 0 49 50h43q-18 -104 -92 -104q-23 0 -73 23q-44 23 -67 23q-37 0 -49 -50z" />
    <glyph glyph-name="odieresis" unicode="&#xf6;" horiz-adv-x="593" 
d="M545 234q0 -106 -70 -176t-179 -70q-108 0 -178 70t-70 176t70 176t178 70q109 0 179 -70t70 -176zM473 234q0 80 -48.5 133t-128.5 53q-79 0 -127.5 -53t-48.5 -133t48.5 -133t127.5 -53q80 0 128.5 53t48.5 133zM150 647q0 20 14.5 35.5t36.5 15.5t36.5 -15.5
t14.5 -35.5t-14.5 -35.5t-36.5 -15.5t-36.5 15.5t-14.5 35.5zM342 647q0 20 14.5 35.5t36.5 15.5t36.5 -15.5t14.5 -35.5t-14.5 -35.5t-36.5 -15.5t-36.5 15.5t-14.5 35.5z" />
    <glyph glyph-name="divide" unicode="&#xf7;" horiz-adv-x="666" 
d="M588 333v-60h-510v60h510zM387 465q0 -22 -15.5 -38t-38.5 -16t-38.5 16t-15.5 38t15.5 38t38.5 16t38.5 -16t15.5 -38zM387 141q0 -22 -15.5 -38t-38.5 -16t-38.5 16t-15.5 38t15.5 38t38.5 16t38.5 -16t15.5 -38z" />
    <glyph glyph-name="oslash" unicode="&#xf8;" horiz-adv-x="593" 
d="M439 348l-255 -262q46 -38 112 -38q80 0 128.5 53t48.5 133q0 65 -34 114zM154 120l255 261q-45 39 -113 39q-79 0 -127.5 -53t-48.5 -133q0 -68 34 -114zM553 465l-66 -68q58 -66 58 -163q0 -106 -70 -176t-179 -70q-92 0 -157 52l-67 -68l-32 31l66 68q-58 67 -58 163
q0 106 70 176t178 70q91 0 159 -52l66 68z" />
    <glyph glyph-name="ugrave" unicode="&#xf9;" 
d="M478 0h-68q-3 25 -3 75h-2q-22 -38 -66 -62.5t-91 -24.5q-88 0 -132 47.5t-44 135.5v297h66v-259q0 -82 28 -121.5t99 -39.5q8 0 20.5 2t35.5 12.5t40.5 28t31.5 53.5t14 84v240h66v-365q0 -18 5 -103zM280 564l-132 144h91l100 -144h-59z" />
    <glyph glyph-name="uacute" unicode="&#xfa;" 
d="M478 0h-68q-3 25 -3 75h-2q-22 -38 -66 -62.5t-91 -24.5q-88 0 -132 47.5t-44 135.5v297h66v-259q0 -82 28 -121.5t99 -39.5q8 0 20.5 2t35.5 12.5t40.5 28t31.5 53.5t14 84v240h66v-365q0 -18 5 -103zM408 708l-132 -144h-59l100 144h91z" />
    <glyph glyph-name="ucircumflex" unicode="&#xfb;" 
d="M478 0h-68q-3 25 -3 75h-2q-22 -38 -66 -62.5t-91 -24.5q-88 0 -132 47.5t-44 135.5v297h66v-259q0 -82 28 -121.5t99 -39.5q8 0 20.5 2t35.5 12.5t40.5 28t31.5 53.5t14 84v240h66v-365q0 -18 5 -103zM318 708l109 -144h-66l-83 108l-83 -108h-66l109 144h80z" />
    <glyph glyph-name="udieresis" unicode="&#xfc;" 
d="M478 0h-68q-3 25 -3 75h-2q-22 -38 -66 -62.5t-91 -24.5q-88 0 -132 47.5t-44 135.5v297h66v-259q0 -82 28 -121.5t99 -39.5q8 0 20.5 2t35.5 12.5t40.5 28t31.5 53.5t14 84v240h66v-365q0 -18 5 -103zM131 647q0 20 14.5 35.5t36.5 15.5t36.5 -15.5t14.5 -35.5
t-14.5 -35.5t-36.5 -15.5t-36.5 15.5t-14.5 35.5zM323 647q0 20 14.5 35.5t36.5 15.5t36.5 -15.5t14.5 -35.5t-14.5 -35.5t-36.5 -15.5t-36.5 15.5t-14.5 35.5z" />
    <glyph glyph-name="yacute" unicode="&#xfd;" horiz-adv-x="482" 
d="M99 468l147 -387l143 387h80l-234 -590q-23 -59 -56.5 -88.5t-90.5 -29.5q-38 0 -61 7l7 64q21 -11 50 -11q33 0 53.5 21t36.5 63l34 90l-192 474h83zM371 708l-132 -144h-59l100 144h91z" />
    <glyph glyph-name="thorn" unicode="&#xfe;" horiz-adv-x="611" 
d="M72 -228v984h66v-375h2q72 99 182 99q109 0 179 -70t70 -176t-70 -176t-179 -70q-51 0 -101.5 23t-80.5 67h-2v-306h-66zM499 234q0 80 -48.5 133t-128.5 53q-81 0 -134 -53.5t-53 -132.5q0 -80 51.5 -133t135.5 -53q80 0 128.5 53t48.5 133z" />
    <glyph glyph-name="ydieresis" unicode="&#xff;" horiz-adv-x="482" 
d="M99 468l147 -387l143 387h80l-234 -590q-23 -59 -56.5 -88.5t-90.5 -29.5q-38 0 -61 7l7 64q21 -11 50 -11q33 0 53.5 21t36.5 63l34 90l-192 474h83zM94 647q0 20 14.5 35.5t36.5 15.5t36.5 -15.5t14.5 -35.5t-14.5 -35.5t-36.5 -15.5t-36.5 15.5t-14.5 35.5zM286 647
q0 20 14.5 35.5t36.5 15.5t36.5 -15.5t14.5 -35.5t-14.5 -35.5t-36.5 -15.5t-36.5 15.5t-14.5 35.5z" />
    <glyph glyph-name="Amacron" unicode="&#x100;" horiz-adv-x="686" 
d="M162 186l-78 -186h-84l308 708h70l308 -708h-84l-78 186h-362zM343 624l-154 -372h307zM478 845v-54h-270v54h270z" />
    <glyph glyph-name="amacron" unicode="&#x101;" horiz-adv-x="519" 
d="M339 287h33v12q0 121 -120 121q-82 0 -143 -55l-40 47q66 68 198 68q74 0 122.5 -42.5t48.5 -123.5v-209q0 -55 8 -105h-64q-6 34 -6 76h-2q-54 -88 -165 -88q-67 0 -114 36t-47 101q0 37 13 65t38 45t52 28t63.5 16t63.5 6.5t61 1.5zM372 233h-34q-218 0 -218 -99
q0 -43 32.5 -64.5t77.5 -21.5q69 0 105.5 42.5t36.5 108.5v34zM381 654v-54h-270v54h270z" />
    <glyph glyph-name="Abreve" unicode="&#x102;" horiz-adv-x="686" 
d="M162 186l-78 -186h-84l308 708h70l308 -708h-84l-78 186h-362zM343 624l-154 -372h307zM446 898h44q-4 -62 -44 -97t-103 -35t-103 35t-44 97h44q7 -38 35 -58t68 -20t68 20t35 58z" />
    <glyph glyph-name="abreve" unicode="&#x103;" horiz-adv-x="519" 
d="M339 287h33v12q0 121 -120 121q-82 0 -143 -55l-40 47q66 68 198 68q74 0 122.5 -42.5t48.5 -123.5v-209q0 -55 8 -105h-64q-6 34 -6 76h-2q-54 -88 -165 -88q-67 0 -114 36t-47 101q0 37 13 65t38 45t52 28t63.5 16t63.5 6.5t61 1.5zM372 233h-34q-218 0 -218 -99
q0 -43 32.5 -64.5t77.5 -21.5q69 0 105.5 42.5t36.5 108.5v34zM349 708h44q-4 -62 -44 -97t-103 -35t-103 35t-44 97h44q7 -38 35 -58t68 -20t68 20t35 58z" />
    <glyph glyph-name="Aogonek" unicode="&#x104;" horiz-adv-x="686" 
d="M681 -141l19 -40q-36 -36 -90 -36q-36 0 -63 24t-27 61q0 53 58 111q12 12 24 21l-78 186h-362l-78 -186h-84l308 708h70l308 -708h-35q-34 -34 -51 -58q-20 -29 -20 -57q0 -21 14.5 -34.5t35.5 -13.5q32 0 51 22zM343 624l-154 -372h307z" />
    <glyph glyph-name="aogonek" unicode="&#x105;" horiz-adv-x="519" 
d="M463 -141l19 -40q-36 -36 -90 -36q-36 0 -63 24t-27 61q0 53 58 111q16 14 23 21h-1q-6 34 -6 76h-2q-54 -88 -165 -88q-67 0 -114 36t-47 101q0 37 13 65t38 45t52 28t63.5 16t63.5 6.5t61 1.5h33v12q0 121 -120 121q-82 0 -143 -55l-40 47q66 68 198 68
q74 0 122.5 -42.5t48.5 -123.5v-209q0 -55 8 -105h-13q-34 -34 -51 -58q-20 -29 -20 -57q0 -21 14.5 -34.5t35.5 -13.5q32 0 51 22zM372 233h-34q-218 0 -218 -99q0 -43 32.5 -64.5t77.5 -21.5q69 0 105.5 42.5t36.5 108.5v34z" />
    <glyph glyph-name="Cacute" unicode="&#x106;" horiz-adv-x="704" 
d="M620 154l59 -42q-37 -57 -107 -93.5t-155 -36.5q-159 0 -264 105.5t-105 266.5t105 266.5t264 105.5q70 0 135.5 -28t109.5 -84l-63 -47q-22 36 -75 64.5t-107 28.5q-132 0 -211.5 -89.5t-79.5 -216.5t79.5 -216.5t211.5 -89.5q134 0 203 106zM563 904l-132 -144h-59
l100 144h91z" />
    <glyph glyph-name="cacute" unicode="&#x107;" horiz-adv-x="482" 
d="M467 399l-54 -41q-17 27 -48.5 44.5t-68.5 17.5q-80 1 -128 -51.5t-48 -134.5t48 -134.5t128 -51.5q37 0 68.5 17.5t48.5 44.5l54 -41q-68 -79 -171 -81q-113 -1 -180.5 68.5t-67.5 177.5t67.5 177.5t180.5 68.5q103 -2 171 -81zM429 708l-132 -144h-59l100 144h91z" />
    <glyph glyph-name="Ccircumflex" unicode="&#x108;" horiz-adv-x="704" 
d="M620 154l59 -42q-37 -57 -107 -93.5t-155 -36.5q-159 0 -264 105.5t-105 266.5t105 266.5t264 105.5q70 0 135.5 -28t109.5 -84l-63 -47q-22 36 -75 64.5t-107 28.5q-132 0 -211.5 -89.5t-79.5 -216.5t79.5 -216.5t211.5 -89.5q134 0 203 106zM451 904l109 -144h-66
l-83 108l-83 -108h-66l109 144h80z" />
    <glyph glyph-name="ccircumflex" unicode="&#x109;" horiz-adv-x="482" 
d="M467 399l-54 -41q-17 27 -48.5 44.5t-68.5 17.5q-80 1 -128 -51.5t-48 -134.5t48 -134.5t128 -51.5q37 0 68.5 17.5t48.5 44.5l54 -41q-68 -79 -171 -81q-113 -1 -180.5 68.5t-67.5 177.5t67.5 177.5t180.5 68.5q103 -2 171 -81zM331 708l109 -144h-66l-83 108l-83 -108
h-66l109 144h80z" />
    <glyph glyph-name="Cdotaccent" unicode="&#x10a;" horiz-adv-x="704" 
d="M620 154l59 -42q-37 -57 -107 -93.5t-155 -36.5q-159 0 -264 105.5t-105 266.5t105 266.5t264 105.5q70 0 135.5 -28t109.5 -84l-63 -47q-22 36 -75 64.5t-107 28.5q-132 0 -211.5 -89.5t-79.5 -216.5t79.5 -216.5t211.5 -89.5q134 0 203 106zM358 817q0 21 14 36t37 15
t37 -15t14 -36t-14 -36t-37 -15t-37 15t-14 36z" />
    <glyph glyph-name="cdotaccent" unicode="&#x10b;" horiz-adv-x="482" 
d="M467 399l-54 -41q-17 27 -48.5 44.5t-68.5 17.5q-80 1 -128 -51.5t-48 -134.5t48 -134.5t128 -51.5q37 0 68.5 17.5t48.5 44.5l54 -41q-68 -79 -171 -81q-113 -1 -180.5 68.5t-67.5 177.5t67.5 177.5t180.5 68.5q103 -2 171 -81zM232 657q0 21 14 36t37 15t37 -15t14 -36
t-14 -36t-37 -15t-37 15t-14 36z" />
    <glyph glyph-name="Ccaron" unicode="&#x10c;" horiz-adv-x="704" 
d="M620 154l59 -42q-37 -57 -107 -93.5t-155 -36.5q-159 0 -264 105.5t-105 266.5t105 266.5t264 105.5q70 0 135.5 -28t109.5 -84l-63 -47q-22 36 -75 64.5t-107 28.5q-132 0 -211.5 -89.5t-79.5 -216.5t79.5 -216.5t211.5 -89.5q134 0 203 106zM550 904l-109 -144h-80
l-109 144h66l83 -108l83 108h66z" />
    <glyph glyph-name="ccaron" unicode="&#x10d;" horiz-adv-x="482" 
d="M467 399l-54 -41q-17 27 -48.5 44.5t-68.5 17.5q-80 1 -128 -51.5t-48 -134.5t48 -134.5t128 -51.5q37 0 68.5 17.5t48.5 44.5l54 -41q-68 -79 -171 -81q-113 -1 -180.5 68.5t-67.5 177.5t67.5 177.5t180.5 68.5q103 -2 171 -81zM436 708l-109 -144h-80l-109 144h66
l83 -108l83 108h66z" />
    <glyph glyph-name="Dcaron" unicode="&#x10e;" horiz-adv-x="741" 
d="M86 0v708h235q68 0 133 -22.5t119 -65t87 -112t33 -154.5t-33 -154.5t-87 -112t-119 -65t-133 -22.5h-235zM158 642v-576h140q78 0 140 24t100 65t57.5 92t19.5 107t-19.5 107t-57.5 92t-100 65t-140 24h-140zM493 904l-109 -144h-80l-109 144h66l83 -108l83 108h66z" />
    <glyph glyph-name="dcaron" unicode="&#x10f;" horiz-adv-x="611" 
d="M539 756v-756h-66v78h-2q-30 -44 -80.5 -67t-101.5 -23q-109 0 -179 70t-70 176t70 176t179 70q51 0 101.5 -23t80.5 -67h2v366h66zM112 234q0 -80 48.5 -133t128.5 -53q81 0 134 53.5t53 132.5t-53 132.5t-134 53.5q-80 0 -128.5 -53t-48.5 -133zM733 708l-76 -185h-57
l62 185h71z" />
    <glyph glyph-name="Dcroat" unicode="&#x110;" horiz-adv-x="741" 
d="M158 347v-281h140q78 0 140 24t100 65t57.5 92t19.5 107t-19.5 107t-57.5 92t-100 65t-140 24h-140v-241h258v-54h-258zM86 0v347h-73v54h73v307h235q68 0 133 -22.5t119 -65t87 -112t33 -154.5t-33 -154.5t-87 -112t-119 -65t-133 -22.5h-235z" />
    <glyph glyph-name="dcroat" unicode="&#x111;" horiz-adv-x="611" 
d="M593 612v-52h-54v-560h-66v78h-2q-30 -45 -80.5 -67.5t-101.5 -22.5q-109 0 -179 70t-70 176t70 176t179 70q51 0 101.5 -22.5t80.5 -67.5h2v170h-199v52h199v144h66v-144h54zM112 234q0 -80 49 -133t128 -53q80 0 133.5 53.5t53.5 132.5t-53.5 132.5t-133.5 53.5
q-79 0 -128 -53t-49 -133z" />
    <glyph glyph-name="Emacron" unicode="&#x112;" horiz-adv-x="593" 
d="M168 335v-269h379v-66h-451v708h439v-66h-367v-241h343v-66h-343zM455 845v-54h-270v54h270z" />
    <glyph glyph-name="emacron" unicode="&#x113;" 
d="M508 216h-390q6 -71 54.5 -119.5t117.5 -48.5q49 0 89 23.5t61 57.5l51 -42q-78 -99 -201 -99q-104 0 -173 70t-69 176q0 105 68 175.5t168 70.5q103 -1 163.5 -67.5t60.5 -166.5v-30zM120 270h316q0 68 -41 109t-111 41q-64 0 -114 -46t-50 -104zM416 654v-54h-270v54
h270z" />
    <glyph glyph-name="Ebreve" unicode="&#x114;" horiz-adv-x="593" 
d="M168 335v-269h379v-66h-451v708h439v-66h-367v-241h343v-66h-343zM425 898h44q-4 -62 -44 -97t-103 -35t-103 35t-44 97h44q7 -38 35 -58t68 -20t68 20t35 58z" />
    <glyph glyph-name="ebreve" unicode="&#x115;" 
d="M508 216h-390q6 -71 54.5 -119.5t117.5 -48.5q49 0 89 23.5t61 57.5l51 -42q-78 -99 -201 -99q-104 0 -173 70t-69 176q0 105 68 175.5t168 70.5q103 -1 163.5 -67.5t60.5 -166.5v-30zM120 270h316q0 68 -41 109t-111 41q-64 0 -114 -46t-50 -104zM390 708h44
q-4 -62 -44 -97t-103 -35t-103 35t-44 97h44q7 -38 35 -58t68 -20t68 20t35 58z" />
    <glyph glyph-name="Edotaccent" unicode="&#x116;" horiz-adv-x="593" 
d="M168 335v-269h379v-66h-451v708h439v-66h-367v-241h343v-66h-343zM279 817q0 21 14 36t37 15t37 -15t14 -36t-14 -36t-37 -15t-37 15t-14 36z" />
    <glyph glyph-name="edotaccent" unicode="&#x117;" 
d="M508 216h-390q6 -71 54.5 -119.5t117.5 -48.5q49 0 89 23.5t61 57.5l51 -42q-78 -99 -201 -99q-104 0 -173 70t-69 176q0 105 68 175.5t168 70.5q103 -1 163.5 -67.5t60.5 -166.5v-30zM120 270h316q0 68 -41 109t-111 41q-64 0 -114 -46t-50 -104zM238 657q0 21 14 36
t37 15t37 -15t14 -36t-14 -36t-37 -15t-37 15t-14 36z" />
    <glyph glyph-name="Eogonek" unicode="&#x118;" horiz-adv-x="593" 
d="M561 -141l19 -40q-36 -36 -90 -36q-36 0 -63 24t-27 61q0 53 58 111q16 14 23 21h-385v708h439v-66h-367v-241h343v-66h-343v-269h379v-66h-16q-34 -34 -51 -58q-20 -29 -20 -57q0 -21 14.5 -34.5t35.5 -13.5q32 0 51 22z" />
    <glyph glyph-name="eogonek" unicode="&#x119;" 
d="M371 -141l19 -40q-36 -36 -90 -36q-36 0 -63 24t-27 61q0 53 58 111q1 2 4.5 5t5.5 4q-44 1 -85 18q-66 28 -105.5 89t-39.5 139q0 105 68 175.5t168 70.5q103 0 163.5 -67.5t60.5 -166.5v-30h-390q6 -71 54.5 -119.5t117.5 -48.5q50 0 89 23t61 58l51 -42
q-43 -54 -93 -76q-35 -15 -66 -19q-30 -33 -42 -50q-20 -29 -20 -57q0 -21 14.5 -34.5t35.5 -13.5q32 0 51 22zM120 270h316q0 68 -40.5 109t-111.5 41q-64 0 -114 -46t-50 -104z" />
    <glyph glyph-name="Ecaron" unicode="&#x11a;" horiz-adv-x="593" 
d="M168 335v-269h379v-66h-451v708h439v-66h-367v-241h343v-66h-343zM472 904l-109 -144h-80l-109 144h66l83 -108l83 108h66z" />
    <glyph glyph-name="ecaron" unicode="&#x11b;" 
d="M508 216h-390q6 -71 54.5 -119.5t117.5 -48.5q49 0 89 23.5t61 57.5l51 -42q-78 -99 -201 -99q-104 0 -173 70t-69 176q0 105 68 175.5t168 70.5q103 -1 163.5 -67.5t60.5 -166.5v-30zM120 270h316q0 68 -41 109t-111 41q-64 0 -114 -46t-50 -104zM440 708l-109 -144h-80
l-109 144h66l83 -108l83 108h66z" />
    <glyph glyph-name="Gcircumflex" unicode="&#x11c;" horiz-adv-x="778" 
d="M673 631l-54 -53q-77 82 -202 82q-132 0 -211.5 -89.5t-79.5 -216.5t79.5 -216.5t211.5 -89.5q108 0 196 50v237h-169v66h241v-347q-121 -72 -268 -72q-159 0 -264 105.5t-105 266.5t105 266.5t264 105.5q161 0 256 -95zM449 904l109 -144h-66l-83 108l-83 -108h-66
l109 144h80z" />
    <glyph glyph-name="gcircumflex" unicode="&#x11d;" horiz-adv-x="611" 
d="M59 -146l49 52q30 -40 77 -63t102 -23q95 0 138.5 50.5t43.5 133.5v84h-2q-59 -88 -175 -88q-102 0 -173 68t-71 170q0 103 67.5 172.5t170.5 69.5q114 0 181 -90h2v78h66v-464q0 -34 -5.5 -65t-22.5 -64.5t-43.5 -58t-73 -40.5t-106.5 -16q-137 0 -225 94zM120 240
q0 -74 50.5 -127t123.5 -53q75 0 127.5 50.5t49.5 129.5q0 76 -48.5 128t-128.5 52q-73 0 -123.5 -53t-50.5 -127zM342 708l109 -144h-66l-83 108l-83 -108h-66l109 144h80z" />
    <glyph glyph-name="Gbreve" unicode="&#x11e;" horiz-adv-x="778" 
d="M673 631l-54 -53q-77 82 -202 82q-132 0 -211.5 -89.5t-79.5 -216.5t79.5 -216.5t211.5 -89.5q108 0 196 50v237h-169v66h241v-347q-121 -72 -268 -72q-159 0 -264 105.5t-105 266.5t105 266.5t264 105.5q161 0 256 -95zM513 898h44q-4 -62 -44 -97t-103 -35t-103 35
t-44 97h44q7 -38 35 -58t68 -20t68 20t35 58z" />
    <glyph glyph-name="gbreve" unicode="&#x11f;" horiz-adv-x="611" 
d="M59 -146l49 52q30 -40 77 -63t102 -23q95 0 138.5 50.5t43.5 133.5v84h-2q-59 -88 -175 -88q-102 0 -173 68t-71 170q0 103 67.5 172.5t170.5 69.5q114 0 181 -90h2v78h66v-464q0 -34 -5.5 -65t-22.5 -64.5t-43.5 -58t-73 -40.5t-106.5 -16q-137 0 -225 94zM120 240
q0 -74 50.5 -127t123.5 -53q75 0 127.5 50.5t49.5 129.5q0 76 -48.5 128t-128.5 52q-73 0 -123.5 -53t-50.5 -127zM409 708h44q-4 -62 -44 -97t-103 -35t-103 35t-44 97h44q7 -38 35 -58t68 -20t68 20t35 58z" />
    <glyph glyph-name="Gdotaccent" unicode="&#x120;" horiz-adv-x="778" 
d="M673 631l-54 -53q-77 82 -202 82q-132 0 -211.5 -89.5t-79.5 -216.5t79.5 -216.5t211.5 -89.5q108 0 196 50v237h-169v66h241v-347q-121 -72 -268 -72q-159 0 -264 105.5t-105 266.5t105 266.5t264 105.5q161 0 256 -95zM372 817q0 21 14 36t37 15t37 -15t14 -36t-14 -36
t-37 -15t-37 15t-14 36z" />
    <glyph glyph-name="gdotaccent" unicode="&#x121;" horiz-adv-x="611" 
d="M59 -146l49 52q30 -40 77 -63t102 -23q95 0 138.5 50.5t43.5 133.5v84h-2q-59 -88 -175 -88q-102 0 -173 68t-71 170q0 103 67.5 172.5t170.5 69.5q114 0 181 -90h2v78h66v-464q0 -34 -5.5 -65t-22.5 -64.5t-43.5 -58t-73 -40.5t-106.5 -16q-137 0 -225 94zM120 240
q0 -74 50.5 -127t123.5 -53q75 0 127.5 50.5t49.5 129.5q0 76 -48.5 128t-128.5 52q-73 0 -123.5 -53t-50.5 -127zM256 657q0 21 14 36t37 15t37 -15t14 -36t-14 -36t-37 -15t-37 15t-14 36z" />
    <glyph glyph-name="Gcommaaccent" unicode="&#x122;" horiz-adv-x="778" 
d="M673 631l-54 -53q-77 82 -202 82q-132 0 -211.5 -89.5t-79.5 -216.5t79.5 -216.5t211.5 -89.5q108 0 196 50v237h-169v66h241v-347q-121 -72 -268 -72q-159 0 -264 105.5t-105 266.5t105 266.5t264 105.5q161 0 256 -95zM468 -45l-76 -185h-57l62 185h71z" />
    <glyph glyph-name="gcommaaccent" unicode="&#x123;" horiz-adv-x="611" 
d="M59 -146l49 52q30 -40 77 -63t102 -23q95 0 138.5 50.5t43.5 133.5v84h-2q-59 -88 -175 -88q-102 0 -173 68t-71 170q0 103 67.5 172.5t170.5 69.5q114 0 181 -90h2v78h66v-464q0 -34 -5.5 -65t-22.5 -64.5t-43.5 -58t-73 -40.5t-106.5 -16q-137 0 -225 94zM120 240
q0 -74 50.5 -127t123.5 -53q75 0 127.5 50.5t49.5 129.5q0 76 -48.5 128t-128.5 52q-73 0 -123.5 -53t-50.5 -127zM262 564l76 185h57l-62 -185h-71z" />
    <glyph glyph-name="Hcircumflex" unicode="&#x124;" horiz-adv-x="722" 
d="M96 0v708h72v-307h386v307h72v-708h-72v335h-386v-335h-72zM402 904l109 -144h-66l-83 108l-83 -108h-66l109 144h80z" />
    <glyph glyph-name="hcircumflex" unicode="&#x125;" 
d="M72 0v756h66v-363h2q22 38 66 62.5t91 24.5q88 0 132 -47.5t44 -135.5v-297h-66v259q0 82 -28 121.5t-99 39.5q-8 0 -20.5 -2t-35.5 -12.5t-40.5 -28t-31.5 -53.5t-14 -84v-240h-66zM321 940l109 -144h-66l-83 108l-83 -108h-66l109 144h80z" />
    <glyph glyph-name="Hbar" unicode="&#x126;" horiz-adv-x="722" 
d="M96 0v708h72v-165h386v165h72v-708h-72v335h-386v-335h-72zM168 401h386v82h-386v-82z" />
    <glyph glyph-name="hbar" unicode="&#x127;" 
d="M331 612v-53h-193v-166h2q22 38 66 62.5t91 24.5q176 0 176 -183v-297h-66v259q0 82 -28.5 121.5t-98.5 39.5q-8 0 -20.5 -2t-35.5 -12.5t-40.5 -28t-31.5 -53.5t-14 -84v-240h-66v559h-60v53h60v144h66v-144h193z" />
    <glyph glyph-name="Itilde" unicode="&#x128;" horiz-adv-x="264" 
d="M168 708v-708h-72v708h72zM14 771h-43q16 104 92 104q27 0 73 -23q50 -23 67 -23q35 0 49 50h43q-16 -104 -92 -104q-23 0 -73 23q-44 23 -67 23q-35 0 -49 -50z" />
    <glyph glyph-name="itilde" unicode="&#x129;" horiz-adv-x="240" 
d="M153 468v-468h-66v468h66zM3 576h-43q18 104 92 104q27 0 73 -23q50 -23 67 -23q37 0 49 50h43q-18 -104 -92 -104q-23 0 -73 23q-44 23 -67 23q-37 0 -49 -50z" />
    <glyph glyph-name="Imacron" unicode="&#x12a;" horiz-adv-x="264" 
d="M168 708v-708h-72v708h72zM266 845v-54h-270v54h270z" />
    <glyph glyph-name="imacron" unicode="&#x12b;" horiz-adv-x="240" 
d="M153 468v-468h-66v468h66zM256 654v-54h-270v54h270z" />
    <glyph glyph-name="Iogonek" unicode="&#x12e;" horiz-adv-x="264" 
d="M180 -141l19 -40q-36 -36 -90 -36q-36 0 -63 24t-27 61q0 53 58 111q16 14 23 21h-4v708h72v-708h-18q-34 -34 -51 -58q-20 -29 -20 -57q0 -21 14.5 -34.5t35.5 -13.5q32 0 51 22z" />
    <glyph glyph-name="iogonek" unicode="&#x12f;" horiz-adv-x="240" 
d="M169 -141l19 -40q-36 -36 -90 -36q-36 0 -63 24t-27 61q0 53 58 111q16 14 23 21h-2v468h66v-468h-14q-34 -34 -51 -58q-20 -29 -20 -57q0 -21 14.5 -34.5t35.5 -13.5q32 0 51 22zM168 648q0 -20 -14.5 -34t-33.5 -14t-33.5 14t-14.5 34t14.5 34t33.5 14t33.5 -14
t14.5 -34z" />
    <glyph glyph-name="Idotaccent" unicode="&#x130;" horiz-adv-x="264" 
d="M168 708v-708h-72v708h72zM82 817q0 21 14 36t37 15t37 -15t14 -36t-14 -36t-37 -15t-37 15t-14 36z" />
    <glyph glyph-name="dotlessi" unicode="&#x131;" horiz-adv-x="240" 
d="M153 468v-468h-66v468h66z" />
    <glyph glyph-name="Jcircumflex" unicode="&#x134;" horiz-adv-x="482" 
d="M14 130l73 15q21 -97 112 -97q125 0 125 176v484h72v-514q0 -38 -10 -73.5t-32 -67.5t-62.5 -51.5t-94.5 -19.5q-74 0 -122.5 38t-60.5 110zM398 904l109 -144h-66l-83 108l-83 -108h-66l109 144h80z" />
    <glyph glyph-name="jcircumflex" unicode="&#x135;" horiz-adv-x="240" 
d="M-31 -230l9 57l3 -1q22 -6 35 -6q43 0 57 27t14 71v550h66v-561v-4q2 -143 -132 -143q-29 0 -52 10zM157 708l109 -144h-66l-83 108l-83 -108h-66l109 144h80z" />
    <glyph glyph-name="Kcommaaccent" unicode="&#x136;" horiz-adv-x="630" 
d="M168 708v-307h10l333 307h103l-357 -321l377 -387h-106l-348 365h-12v-365h-72v708h72zM364 -45l-76 -185h-57l62 185h71z" />
    <glyph glyph-name="kcommaaccent" unicode="&#x137;" horiz-adv-x="482" 
d="M138 756v-499l221 211h99l-233 -214l258 -254h-102l-243 246v-246h-66v756h66zM274 -45l-76 -185h-57l62 185h71z" />
    <glyph glyph-name="Lacute" unicode="&#x139;" horiz-adv-x="500" 
d="M168 708v-642h330v-66h-402v708h72zM300 904l-132 -144h-59l100 144h91z" />
    <glyph glyph-name="lacute" unicode="&#x13a;" horiz-adv-x="240" 
d="M153 756v-756h-66v756h66zM278 936l-132 -144h-59l100 144h91z" />
    <glyph glyph-name="Lcommaaccent" unicode="&#x13b;" horiz-adv-x="500" 
d="M168 708v-642h330v-66h-402v708h72zM343 -45l-76 -185h-57l62 185h71z" />
    <glyph glyph-name="lcommaaccent" unicode="&#x13c;" horiz-adv-x="240" 
d="M153 756v-756h-66v756h66zM158 -45l-76 -185h-57l62 185h71z" />
    <glyph glyph-name="Lcaron" unicode="&#x13d;" horiz-adv-x="500" 
d="M168 708v-642h330v-66h-402v708h72zM388 708l-76 -185h-57l62 185h71z" />
    <glyph glyph-name="lcaron" unicode="&#x13e;" horiz-adv-x="240" 
d="M153 756v-756h-66v756h66zM335 708l-76 -185h-57l62 185h71z" />
    <glyph glyph-name="Ldot" unicode="&#x13f;" horiz-adv-x="500" 
d="M168 708v-642h330v-66h-402v708h72zM322 405q0 21 14 36t37 15t37 -15t14 -36t-14 -36t-37 -15t-37 15t-14 36z" />
    <glyph glyph-name="ldot" unicode="&#x140;" horiz-adv-x="300" 
d="M153 756v-756h-66v756h66zM215 409q0 21 14 36t37 15t37 -15t14 -36t-14 -36t-37 -15t-37 15t-14 36z" />
    <glyph glyph-name="Lslash" unicode="&#x141;" horiz-adv-x="500" 
d="M168 708v-346l216 186v-70l-216 -186v-226h330v-66h-402v230l-82 -70v70l82 70v408h72z" />
    <glyph glyph-name="lslash" unicode="&#x142;" horiz-adv-x="240" 
d="M153 756v-298l81 84v-73l-81 -83v-386h-66v317l-81 -83v73l81 82v367h66z" />
    <glyph glyph-name="Nacute" unicode="&#x143;" horiz-adv-x="778" 
d="M186 708l422 -600h2v600h72v-708h-90l-422 606h-2v-606h-72v708h90zM532 904l-132 -144h-59l100 144h91z" />
    <glyph glyph-name="nacute" unicode="&#x144;" 
d="M67 468h68q3 -25 3 -75h2q22 38 66 62.5t91 24.5q88 0 132 -47.5t44 -135.5v-297h-66v259q0 82 -28 121.5t-99 39.5q-8 0 -20.5 -2t-35.5 -12.5t-40.5 -28t-31.5 -53.5t-14 -84v-240h-66v365q0 18 -5 103zM423 708l-132 -144h-59l100 144h91z" />
    <glyph glyph-name="Ncommaaccent" unicode="&#x145;" horiz-adv-x="778" 
d="M186 708l422 -600h2v600h72v-708h-90l-422 606h-2v-606h-72v708h90zM434 -45l-76 -185h-57l62 185h71z" />
    <glyph glyph-name="ncommaaccent" unicode="&#x146;" 
d="M67 468h68q3 -25 3 -75h2q22 38 66 62.5t91 24.5q88 0 132 -47.5t44 -135.5v-297h-66v259q0 82 -28 121.5t-99 39.5q-8 0 -20.5 -2t-35.5 -12.5t-40.5 -28t-31.5 -53.5t-14 -84v-240h-66v365q0 18 -5 103zM322 -45l-76 -185h-57l62 185h71z" />
    <glyph glyph-name="Ncaron" unicode="&#x147;" horiz-adv-x="778" 
d="M186 708l422 -600h2v600h72v-708h-90l-422 606h-2v-606h-72v708h90zM540 904l-109 -144h-80l-109 144h66l83 -108l83 108h66z" />
    <glyph glyph-name="ncaron" unicode="&#x148;" 
d="M67 468h68q3 -25 3 -75h2q22 38 66 62.5t91 24.5q88 0 132 -47.5t44 -135.5v-297h-66v259q0 82 -28 121.5t-99 39.5q-8 0 -20.5 -2t-35.5 -12.5t-40.5 -28t-31.5 -53.5t-14 -84v-240h-66v365q0 18 -5 103zM423 708l-109 -144h-80l-109 144h66l83 -108l83 108h66z" />
    <glyph glyph-name="Omacron" unicode="&#x14c;" horiz-adv-x="834" 
d="M786 354q0 -161 -105 -266.5t-264 -105.5t-264 105.5t-105 266.5t105 266.5t264 105.5t264 -105.5t105 -266.5zM708 354q0 127 -79.5 216.5t-211.5 89.5t-211.5 -89.5t-79.5 -216.5t79.5 -216.5t211.5 -89.5t211.5 89.5t79.5 216.5zM553 845v-54h-270v54h270z" />
    <glyph glyph-name="omacron" unicode="&#x14d;" horiz-adv-x="593" 
d="M545 234q0 -106 -70 -176t-179 -70q-108 0 -178 70t-70 176t70 176t178 70q109 0 179 -70t70 -176zM473 234q0 80 -48.5 133t-128.5 53q-79 0 -127.5 -53t-48.5 -133t48.5 -133t127.5 -53q80 0 128.5 53t48.5 133zM432 654v-54h-270v54h270z" />
    <glyph glyph-name="Obreve" unicode="&#x14e;" horiz-adv-x="834" 
d="M786 354q0 -161 -105 -266.5t-264 -105.5t-264 105.5t-105 266.5t105 266.5t264 105.5t264 -105.5t105 -266.5zM708 354q0 127 -79.5 216.5t-211.5 89.5t-211.5 -89.5t-79.5 -216.5t79.5 -216.5t211.5 -89.5t211.5 89.5t79.5 216.5zM519 898h44q-4 -62 -44 -97t-103 -35
t-103 35t-44 97h44q7 -38 35 -58t68 -20t68 20t35 58z" />
    <glyph glyph-name="obreve" unicode="&#x14f;" horiz-adv-x="593" 
d="M545 234q0 -106 -70 -176t-179 -70q-108 0 -178 70t-70 176t70 176t178 70q109 0 179 -70t70 -176zM473 234q0 80 -48.5 133t-128.5 53q-79 0 -127.5 -53t-48.5 -133t48.5 -133t127.5 -53q80 0 128.5 53t48.5 133zM400 708h44q-4 -62 -44 -97t-103 -35t-103 35t-44 97h44
q7 -38 35 -58t68 -20t68 20t35 58z" />
    <glyph glyph-name="Ohungarumlaut" unicode="&#x150;" horiz-adv-x="834" 
d="M786 354q0 -161 -105 -266.5t-264 -105.5t-264 105.5t-105 266.5t105 266.5t264 105.5t264 -105.5t105 -266.5zM708 354q0 127 -79.5 216.5t-211.5 89.5t-211.5 -89.5t-79.5 -216.5t79.5 -216.5t211.5 -89.5t211.5 89.5t79.5 216.5zM651 904l-132 -144h-59l100 144h91z
M451 904l-133 -144h-59l101 144h91z" />
    <glyph glyph-name="ohungarumlaut" unicode="&#x151;" horiz-adv-x="593" 
d="M545 234q0 -106 -70 -176t-179 -70q-108 0 -178 70t-70 176t70 176t178 70q109 0 179 -70t70 -176zM473 234q0 80 -48.5 133t-128.5 53q-79 0 -127.5 -53t-48.5 -133t48.5 -133t127.5 -53q80 0 128.5 53t48.5 133zM534 708l-132 -144h-59l100 144h91zM334 708l-133 -144
h-59l101 144h91z" />
    <glyph glyph-name="OE" unicode="&#x152;" horiz-adv-x="944" 
d="M592 642v-241h282v-66h-282v-269h306v-66h-447q-101 0 -179.5 33.5t-122 87.5t-65 113.5t-21.5 120.5q0 86 33.5 155t88.5 111.5t123 64.5t141 22h437v-66h-294zM520 66v576h-57q-143 0 -232.5 -76t-89.5 -214q0 -29 6.5 -62t27.5 -74.5t53 -73.5t89.5 -54t131.5 -22h71z
" />
    <glyph glyph-name="oe" unicode="&#x153;" horiz-adv-x="922" 
d="M874 216h-351v-9q0 -66 37.5 -112.5t99.5 -46.5q55 0 87.5 20t58.5 56l52 -41q-75 -95 -196 -95q-59 0 -107 27t-75 79q-36 -53 -90.5 -79.5t-104.5 -26.5q-106 0 -171.5 69.5t-65.5 176.5q0 105 68 175.5t169 70.5q136 0 198 -105q35 53 77 79t102 26q100 -1 156 -66
t56 -168v-30zM451 234q0 79 -44 132.5t-122 53.5q-72 0 -118.5 -53t-46.5 -133t46.5 -133t118.5 -53q78 0 122 53.5t44 132.5zM523 270h285q0 66 -39.5 108t-104.5 42q-60 0 -100.5 -43t-40.5 -107z" />
    <glyph glyph-name="Racute" unicode="&#x154;" horiz-adv-x="593" 
d="M168 329v-329h-72v708h218q110 0 171.5 -48t61.5 -141q0 -75 -48 -125.5t-133 -57.5l204 -336h-88l-194 329h-120zM168 642v-247h128q91 0 132 34t41 90t-41 89.5t-132 33.5h-128zM434 904l-132 -144h-59l100 144h91z" />
    <glyph glyph-name="racute" unicode="&#x155;" horiz-adv-x="332" 
d="M79 0v322q0 10 -4 146h65v-87h2q16 42 54.5 70.5t95.5 28.5q28 0 49 -6l-13 -65q-13 5 -38 5q-69 0 -107 -47.5t-38 -102.5v-264h-66zM328 708l-132 -144h-59l100 144h91z" />
    <glyph glyph-name="Rcommaaccent" unicode="&#x156;" horiz-adv-x="593" 
d="M168 329v-329h-72v708h218q110 0 171.5 -48t61.5 -141q0 -75 -48 -125.5t-133 -57.5l204 -336h-88l-194 329h-120zM168 642v-247h128q91 0 132 34t41 90t-41 89.5t-132 33.5h-128zM352 -45l-76 -185h-57l62 185h71z" />
    <glyph glyph-name="rcommaaccent" unicode="&#x157;" horiz-adv-x="332" 
d="M79 0v322q0 10 -4 146h65v-87h2q16 42 54.5 70.5t95.5 28.5q28 0 49 -6l-13 -65q-13 5 -38 5q-69 0 -107 -47.5t-38 -102.5v-264h-66zM152 -45l-76 -185h-57l62 185h71z" />
    <glyph glyph-name="Rcaron" unicode="&#x158;" horiz-adv-x="593" 
d="M168 329v-329h-72v708h218q110 0 171.5 -48t61.5 -141q0 -75 -48 -125.5t-133 -57.5l204 -336h-88l-194 329h-120zM168 642v-247h128q91 0 132 34t41 90t-41 89.5t-132 33.5h-128zM443 904l-109 -144h-80l-109 144h66l83 -108l83 108h66z" />
    <glyph glyph-name="rcaron" unicode="&#x159;" horiz-adv-x="332" 
d="M79 0v322q0 10 -4 146h65v-87h2q16 42 54.5 70.5t95.5 28.5q28 0 49 -6l-13 -65q-13 5 -38 5q-69 0 -107 -47.5t-38 -102.5v-264h-66zM328 708l-109 -144h-80l-109 144h66l83 -108l83 108h66z" />
    <glyph glyph-name="Sacute" unicode="&#x15a;" 
d="M494 640l-63 -49q-47 69 -137 69q-61 0 -106 -33t-45 -95q0 -52 37.5 -83.5t90.5 -48t106.5 -36t91 -63.5t37.5 -114q0 -92 -71.5 -148.5t-161.5 -56.5q-146 0 -223 105l65 47q50 -86 161 -86q58 0 105 35t47 94q0 47 -27 77.5t-67 44l-87.5 30.5t-87.5 35t-67 59
t-27 102q0 97 67.5 149t161.5 52q125 0 200 -86zM442 904l-132 -144h-59l100 144h91z" />
    <glyph glyph-name="sacute" unicode="&#x15b;" horiz-adv-x="426" 
d="M379 396l-59 -39q-33 63 -101 63q-39 0 -68 -17.5t-29 -52.5q0 -31 21.5 -47t70.5 -27l67 -16q50 -12 82 -46t32 -82q0 -72 -53 -108t-129 -36q-119 0 -180 91l57 39q45 -70 123 -70q45 0 77.5 20t32.5 58q0 32 -23 48t-66 27l-64 15q-120 30 -120 123q0 69 50.5 105
t122.5 36q115 0 156 -84zM369 708l-132 -144h-59l100 144h91z" />
    <glyph glyph-name="Scircumflex" unicode="&#x15c;" 
d="M494 640l-63 -49q-47 69 -137 69q-61 0 -106 -33t-45 -95q0 -52 37.5 -83.5t90.5 -48t106.5 -36t91 -63.5t37.5 -114q0 -92 -71.5 -148.5t-161.5 -56.5q-146 0 -223 105l65 47q50 -86 161 -86q58 0 105 35t47 94q0 47 -27 77.5t-67 44l-87.5 30.5t-87.5 35t-67 59
t-27 102q0 97 67.5 149t161.5 52q125 0 200 -86zM339 904l109 -144h-66l-83 108l-83 -108h-66l109 144h80z" />
    <glyph glyph-name="scircumflex" unicode="&#x15d;" horiz-adv-x="426" 
d="M379 396l-59 -39q-33 63 -101 63q-39 0 -68 -17.5t-29 -52.5q0 -31 21.5 -47t70.5 -27l67 -16q50 -12 82 -46t32 -82q0 -72 -53 -108t-129 -36q-119 0 -180 91l57 39q45 -70 123 -70q45 0 77.5 20t32.5 58q0 32 -23 48t-66 27l-64 15q-120 30 -120 123q0 69 50.5 105
t122.5 36q115 0 156 -84zM255 708l109 -144h-66l-83 108l-83 -108h-66l109 144h80z" />
    <glyph glyph-name="Scedilla" unicode="&#x15e;" 
d="M299 -16l-32 -44l2 -1q19 7 36 7q32 0 54.5 -20.5t22.5 -54.5q0 -43 -35 -65.5t-80 -22.5q-52 0 -97 24l16 36q34 -18 74 -18q25 0 43.5 11t18.5 34q0 14 -11 27t-38 13q-26 0 -46 -11l-18 17l49 67q-55 1 -109 23q-59 26 -99 81l65 47q51 -86 161 -86q58 0 105 35t47 94
q0 47 -27 77.5t-67 44l-87.5 30.5t-87.5 35t-67 59t-27 102q0 97 67.5 149t161.5 52q125 0 200 -86l-63 -49q-47 69 -137 69q-62 0 -106.5 -32.5t-44.5 -95.5q0 -39 20 -66t52 -42t70.5 -27.5t77.5 -27t71 -35t52 -58t20 -89.5q0 -69 -42.5 -119t-107.5 -72q-28 -9 -57 -12z
" />
    <glyph glyph-name="scedilla" unicode="&#x15f;" horiz-adv-x="426" 
d="M243 -10l-37 -50l2 -1q19 7 36 7q32 0 54.5 -20.5t22.5 -54.5q0 -43 -35 -65.5t-80 -22.5q-52 0 -97 24l16 36q35 -18 74 -18q25 0 43.5 11t18.5 34q0 14 -11 27t-38 13q-26 0 -46 -11l-18 17l53 72q-47 3 -89 20q-45 20 -79 71l57 39q44 -70 123 -70q45 0 77.5 20
t32.5 58q0 32 -23 48t-66 27l-64 15q-120 29 -120 123q0 69 50.5 105t122.5 36q113 0 156 -84l-59 -39q-32 63 -101 63q-39 0 -68 -17.5t-29 -52.5q0 -31 21 -46.5t71 -27.5l67 -16q51 -12 82.5 -45.5t31.5 -82.5q0 -54 -31.5 -88.5t-83.5 -47.5q-20 -5 -37 -6z" />
    <glyph glyph-name="Scaron" unicode="&#x160;" 
d="M494 640l-63 -49q-47 69 -137 69q-61 0 -106 -33t-45 -95q0 -52 37.5 -83.5t90.5 -48t106.5 -36t91 -63.5t37.5 -114q0 -92 -71.5 -148.5t-161.5 -56.5q-146 0 -223 105l65 47q50 -86 161 -86q58 0 105 35t47 94q0 47 -27 77.5t-67 44l-87.5 30.5t-87.5 35t-67 59
t-27 102q0 97 67.5 149t161.5 52q125 0 200 -86zM427 883l-109 -144h-80l-109 144h66l83 -108l83 108h66z" />
    <glyph glyph-name="scaron" unicode="&#x161;" horiz-adv-x="426" 
d="M379 396l-59 -39q-33 63 -101 63q-39 0 -68 -17.5t-29 -52.5q0 -31 21.5 -47t70.5 -27l67 -16q50 -12 82 -46t32 -82q0 -72 -53 -108t-129 -36q-119 0 -180 91l57 39q45 -70 123 -70q45 0 77.5 20t32.5 58q0 32 -23 48t-66 27l-64 15q-120 30 -120 123q0 69 50.5 105
t122.5 36q115 0 156 -84zM362 708l-109 -144h-80l-109 144h66l83 -108l83 108h66z" />
    <glyph glyph-name="Tcommaaccent" unicode="&#x162;" horiz-adv-x="574" 
d="M323 642v-642h-72v642h-237v66h546v-66h-237zM332 -45l-76 -185h-57l62 185h71z" />
    <glyph glyph-name="tcommaaccent" unicode="&#x163;" horiz-adv-x="332" 
d="M314 468v-60h-135v-276q0 -49 17 -66.5t51 -17.5q35 0 68 18l3 -61q-37 -17 -89 -17q-47 0 -81.5 28t-34.5 97v295h-99v60h99v132h66v-132h135zM237 -45l-76 -185h-57l62 185h71z" />
    <glyph glyph-name="Tcaron" unicode="&#x164;" horiz-adv-x="574" 
d="M323 642v-642h-72v642h-237v66h546v-66h-237zM436 904l-109 -144h-80l-109 144h66l83 -108l83 108h66z" />
    <glyph glyph-name="tcaron" unicode="&#x165;" horiz-adv-x="332" 
d="M314 468v-60h-135v-276q0 -49 17 -66.5t51 -17.5q35 0 68 18l3 -61q-37 -17 -89 -17q-47 0 -81.5 28t-34.5 97v295h-99v60h99v132h66v-132h135zM373 708l-76 -185h-57l62 185h71z" />
    <glyph glyph-name="Tbar" unicode="&#x166;" horiz-adv-x="574" 
d="M542 463v-60h-219v-403h-72v403h-219v60h219v179h-237v66h546v-66h-237v-179h219z" />
    <glyph glyph-name="tbar" unicode="&#x167;" horiz-adv-x="332" 
d="M314 468v-60h-135v-102h115v-53h-115v-121q0 -48 17.5 -66t50.5 -18q35 0 68 18l3 -61q-39 -17 -89 -17q-48 0 -82 27.5t-34 97.5v140h-78v53h78v102h-99v60h99v132h66v-132h135z" />
    <glyph glyph-name="Utilde" unicode="&#x168;" horiz-adv-x="686" 
d="M602 708v-444q0 -39 -6.5 -75t-24 -75t-45.5 -67t-75 -46.5t-108 -18.5t-108 18.5t-75 46.5t-45.5 67t-24 75t-6.5 75v444h72v-436q0 -58 14.5 -101.5t35 -66t48.5 -36t48 -17t41 -3.5t41 3.5t48 17t48.5 36t35 66t14.5 101.5v436h72zM233 771h-43q16 104 92 104
q27 0 73 -23q50 -23 67 -23q35 0 49 50h43q-16 -104 -92 -104q-23 0 -73 23q-44 23 -67 23q-35 0 -49 -50z" />
    <glyph glyph-name="utilde" unicode="&#x169;" 
d="M478 0h-68q-3 25 -3 75h-2q-22 -38 -66 -62.5t-91 -24.5q-88 0 -132 47.5t-44 135.5v297h66v-259q0 -82 28 -121.5t99 -39.5q8 0 20.5 2t35.5 12.5t40.5 28t31.5 53.5t14 84v240h66v-365q0 -18 5 -103zM159 576h-43q18 104 92 104q27 0 73 -23q50 -23 67 -23q37 0 49 50
h43q-18 -104 -92 -104q-23 0 -73 23q-44 23 -67 23q-37 0 -49 -50z" />
    <glyph glyph-name="Umacron" unicode="&#x16a;" horiz-adv-x="686" 
d="M602 708v-444q0 -39 -6.5 -75t-24 -75t-45.5 -67t-75 -46.5t-108 -18.5t-108 18.5t-75 46.5t-45.5 67t-24 75t-6.5 75v444h72v-436q0 -58 14.5 -101.5t35 -66t48.5 -36t48 -17t41 -3.5t41 3.5t48 17t48.5 36t35 66t14.5 101.5v436h72zM480 845v-54h-270v54h270z" />
    <glyph glyph-name="umacron" unicode="&#x16b;" 
d="M478 0h-68q-3 25 -3 75h-2q-22 -38 -66 -62.5t-91 -24.5q-88 0 -132 47.5t-44 135.5v297h66v-259q0 -82 28 -121.5t99 -39.5q8 0 20.5 2t35.5 12.5t40.5 28t31.5 53.5t14 84v240h66v-365q0 -18 5 -103zM409 654v-54h-270v54h270z" />
    <glyph glyph-name="Ubreve" unicode="&#x16c;" horiz-adv-x="686" 
d="M602 708v-444q0 -39 -6.5 -75t-24 -75t-45.5 -67t-75 -46.5t-108 -18.5t-108 18.5t-75 46.5t-45.5 67t-24 75t-6.5 75v444h72v-436q0 -58 14.5 -101.5t35 -66t48.5 -36t48 -17t41 -3.5t41 3.5t48 17t48.5 36t35 66t14.5 101.5v436h72zM448 898h44q-4 -62 -44 -97
t-103 -35t-103 35t-44 97h44q7 -38 35 -58t68 -20t68 20t35 58z" />
    <glyph glyph-name="ubreve" unicode="&#x16d;" 
d="M478 0h-68q-3 25 -3 75h-2q-22 -38 -66 -62.5t-91 -24.5q-88 0 -132 47.5t-44 135.5v297h66v-259q0 -82 28 -121.5t99 -39.5q8 0 20.5 2t35.5 12.5t40.5 28t31.5 53.5t14 84v240h66v-365q0 -18 5 -103zM379 708h44q-4 -62 -44 -97t-103 -35t-103 35t-44 97h44
q7 -38 35 -58t68 -20t68 20t35 58z" />
    <glyph glyph-name="Uring" unicode="&#x16e;" horiz-adv-x="686" 
d="M602 708v-444q0 -39 -6.5 -75t-24 -75t-45.5 -67t-75 -46.5t-108 -18.5t-108 18.5t-75 46.5t-45.5 67t-24 75t-6.5 75v444h72v-436q0 -58 14.5 -101.5t35 -66t48.5 -36t48 -17t41 -3.5t41 3.5t48 17t48.5 36t35 66t14.5 101.5v436h72zM407 835q0 25 -17.5 42t-42.5 17
t-42.5 -17t-17.5 -42t17.5 -42t42.5 -17t42.5 17t17.5 42zM443 835q0 -40 -28.5 -67.5t-67.5 -27.5t-67.5 27.5t-28.5 67.5q0 39 28.5 67t67.5 28t67.5 -28t28.5 -67z" />
    <glyph glyph-name="uring" unicode="&#x16f;" 
d="M478 0h-68q-3 25 -3 75h-2q-22 -38 -66 -62.5t-91 -24.5q-88 0 -132 47.5t-44 135.5v297h66v-259q0 -82 28 -121.5t99 -39.5q8 0 20.5 2t35.5 12.5t40.5 28t31.5 53.5t14 84v240h66v-365q0 -18 5 -103zM333 650q0 25 -17.5 42t-42.5 17t-42.5 -17t-17.5 -42t17.5 -42
t42.5 -17t42.5 17t17.5 42zM369 650q0 -40 -28.5 -67.5t-67.5 -27.5t-67.5 27.5t-28.5 67.5q0 39 28.5 67t67.5 28t67.5 -28t28.5 -67z" />
    <glyph glyph-name="Uhungarumlaut" unicode="&#x170;" horiz-adv-x="686" 
d="M602 708v-444q0 -39 -6.5 -75t-24 -75t-45.5 -67t-75 -46.5t-108 -18.5t-108 18.5t-75 46.5t-45.5 67t-24 75t-6.5 75v444h72v-436q0 -58 14.5 -101.5t35 -66t48.5 -36t48 -17t41 -3.5t41 3.5t48 17t48.5 36t35 66t14.5 101.5v436h72zM585 904l-132 -144h-59l100 144h91z
M385 904l-133 -144h-59l101 144h91z" />
    <glyph glyph-name="uhungarumlaut" unicode="&#x171;" 
d="M478 0h-68q-3 25 -3 75h-2q-22 -38 -66 -62.5t-91 -24.5q-88 0 -132 47.5t-44 135.5v297h66v-259q0 -82 28 -121.5t99 -39.5q8 0 20.5 2t35.5 12.5t40.5 28t31.5 53.5t14 84v240h66v-365q0 -18 5 -103zM530 708l-132 -144h-59l100 144h91zM330 708l-133 -144h-59l101 144
h91z" />
    <glyph glyph-name="Uogonek" unicode="&#x172;" horiz-adv-x="686" 
d="M426 -141l19 -40q-36 -36 -90 -36q-37 0 -63.5 24t-26.5 61q0 53 58 111l3 3q-68 3 -113 27q-129 72 -129 255v444h72v-436q0 -58 14.5 -101.5t35 -66t48.5 -36t48 -17t41 -3.5t41 3.5t48 17t48.5 36t35 66t14.5 101.5v436h72v-444q0 -183 -130 -255q-40 -21 -92 -25
q-17 -19 -35 -42q-20 -29 -20 -57q0 -21 14.5 -34.5t35.5 -13.5q32 0 51 22z" />
    <glyph glyph-name="uogonek" unicode="&#x173;" 
d="M492 -141l19 -40q-36 -36 -90 -36q-37 0 -63.5 24t-26.5 61q0 53 58 111q16 14 23 21h-2q-3 25 -3 75h-2q-22 -38 -66 -62.5t-91 -24.5q-176 0 -176 183v297h66v-259q0 -82 28 -121.5t99 -39.5q8 0 20.5 2t35.5 12.5t40.5 28t31.5 53.5t14 84v240h66v-365q0 -45 5 -103
h-16q-34 -34 -51 -58q-20 -29 -20 -57q0 -21 14.5 -34.5t35.5 -13.5q32 0 51 22z" />
    <glyph glyph-name="Wcircumflex" unicode="&#x174;" horiz-adv-x="944" 
d="M80 708l170 -606h2l178 606h86l178 -606h2l168 606h80l-209 -708h-84l-178 606h-2l-178 -606h-84l-209 708h80zM513 904l109 -144h-66l-83 108l-83 -108h-66l109 144h80z" />
    <glyph glyph-name="wcircumflex" unicode="&#x175;" horiz-adv-x="722" 
d="M14 468h78l108 -380h2l125 380h68l125 -380h2l108 380h78l-148 -468h-74l-124 384h-2l-124 -384h-74zM401 708l109 -144h-66l-83 108l-83 -108h-66l109 144h80z" />
    <glyph glyph-name="Ycircumflex" unicode="&#x176;" horiz-adv-x="574" 
d="M323 305v-305h-72v305l-265 403h90l211 -334l211 334h90zM327 904l109 -144h-66l-83 108l-83 -108h-66l109 144h80z" />
    <glyph glyph-name="ycircumflex" unicode="&#x177;" horiz-adv-x="482" 
d="M99 468l147 -387l143 387h80l-234 -590q-23 -59 -56.5 -88.5t-90.5 -29.5q-38 0 -61 7l7 64q21 -11 50 -11q33 0 53.5 21t36.5 63l34 90l-192 474h83zM279 708l109 -144h-66l-83 108l-83 -108h-66l109 144h80z" />
    <glyph glyph-name="Ydieresis" unicode="&#x178;" horiz-adv-x="574" 
d="M323 305v-305h-72v305l-265 403h90l211 -334l211 334h90zM140 822q0 20 14.5 35.5t36.5 15.5t36.5 -15.5t14.5 -35.5t-14.5 -35.5t-36.5 -15.5t-36.5 15.5t-14.5 35.5zM332 822q0 20 14.5 35.5t36.5 15.5t36.5 -15.5t14.5 -35.5t-14.5 -35.5t-36.5 -15.5t-36.5 15.5
t-14.5 35.5z" />
    <glyph glyph-name="Zacute" unicode="&#x179;" 
d="M527 708v-60l-413 -582h419v-66h-510v60l414 582h-408v66h498zM406 904l-132 -144h-59l100 144h91z" />
    <glyph glyph-name="zacute" unicode="&#x17a;" horiz-adv-x="426" 
d="M393 468v-48l-274 -360h284v-60h-380v48l274 360h-260v60h356zM348 708l-132 -144h-59l100 144h91z" />
    <glyph glyph-name="Zdotaccent" unicode="&#x17b;" 
d="M527 708v-60l-413 -582h419v-66h-510v60l414 582h-408v66h498zM217 817q0 21 14 36t37 15t37 -15t14 -36t-14 -36t-37 -15t-37 15t-14 36z" />
    <glyph glyph-name="zdotaccent" unicode="&#x17c;" horiz-adv-x="426" 
d="M393 468v-48l-274 -360h284v-60h-380v48l274 360h-260v60h356zM162 657q0 21 14 36t37 15t37 -15t14 -36t-14 -36t-37 -15t-37 15t-14 36z" />
    <glyph glyph-name="Zcaron" unicode="&#x17d;" 
d="M527 708v-60l-413 -582h419v-66h-510v60l414 582h-408v66h498zM427 883l-109 -144h-80l-109 144h66l83 -108l83 108h66z" />
    <glyph glyph-name="zcaron" unicode="&#x17e;" horiz-adv-x="426" 
d="M393 468v-48l-274 -360h284v-60h-380v48l274 360h-260v60h356zM362 708l-109 -144h-80l-109 144h66l83 -108l83 108h66z" />
    <glyph glyph-name="florin" unicode="&#x192;" 
d="M423 419v-54h-119l-67 -352q-13 -67 -47.5 -109.5t-107.5 -42.5q-50 0 -82 24l32 48q22 -12 52 -12q42 0 59.5 28.5t26.5 77.5l63 338h-108v54h119l27 144q29 157 152 157q52 0 95 -29l-34 -48q-29 17 -57 17q-71 0 -90 -116l-22 -125h108z" />
    <glyph glyph-name="Scommaaccent" unicode="&#x218;" 
d="M494 640l-63 -49q-47 69 -137 69q-61 0 -106 -33t-45 -95q0 -52 37.5 -83.5t90.5 -48t106.5 -36t91 -63.5t37.5 -114q0 -92 -71.5 -148.5t-161.5 -56.5q-146 0 -223 105l65 47q50 -86 161 -86q58 0 105 35t47 94q0 47 -27 77.5t-67 44l-87.5 30.5t-87.5 35t-67 59
t-27 102q0 97 67.5 149t161.5 52q125 0 200 -86zM331 -45l-76 -185h-57l62 185h71z" />
    <glyph glyph-name="scommaaccent" unicode="&#x219;" horiz-adv-x="426" 
d="M379 396l-59 -39q-33 63 -101 63q-39 0 -68 -17.5t-29 -52.5q0 -31 21.5 -47t70.5 -27l67 -16q50 -12 82 -46t32 -82q0 -72 -53 -108t-129 -36q-119 0 -180 91l57 39q45 -70 123 -70q45 0 77.5 20t32.5 58q0 32 -23 48t-66 27l-64 15q-120 30 -120 123q0 69 50.5 105
t122.5 36q115 0 156 -84zM265 -45l-76 -185h-57l62 185h71z" />
    <glyph glyph-name="uni021A" unicode="&#x21a;" horiz-adv-x="574" 
d="M323 642v-642h-72v642h-237v66h546v-66h-237zM332 -45l-76 -185h-57l62 185h71z" />
    <glyph glyph-name="uni021B" unicode="&#x21b;" horiz-adv-x="332" 
d="M314 468v-60h-135v-276q0 -49 17 -66.5t51 -17.5q35 0 68 18l3 -61q-37 -17 -89 -17q-47 0 -81.5 28t-34.5 97v295h-99v60h99v132h66v-132h135zM237 -45l-76 -185h-57l62 185h71z" />
    <glyph glyph-name="dotlessj" unicode="&#x237;" horiz-adv-x="240" 
d="M-31 -230l9 57l3 -1q22 -6 35 -6q43 0 57 27t14 71v550h66v-561v-4q2 -143 -132 -143q-29 0 -52 10z" />
    <glyph glyph-name="circumflex" unicode="&#x2c6;" horiz-adv-x="240" 
d="M160 708l109 -144h-66l-83 108l-83 -108h-66l109 144h80z" />
    <glyph glyph-name="caron" unicode="&#x2c7;" horiz-adv-x="240" 
d="M269 708l-109 -144h-80l-109 144h66l83 -108l83 108h66z" />
    <glyph glyph-name="uni02C9" unicode="&#x2c9;" horiz-adv-x="240" 
d="M255 654v-54h-270v54h270z" />
    <glyph glyph-name="breve" unicode="&#x2d8;" horiz-adv-x="240" 
d="M223 708h44q-4 -62 -44 -97t-103 -35t-103 35t-44 97h44q7 -38 35 -58t68 -20t68 20t35 58z" />
    <glyph glyph-name="dotaccent" unicode="&#x2d9;" horiz-adv-x="240" 
d="M69 657q0 21 14 36t37 15t37 -15t14 -36t-14 -36t-37 -15t-37 15t-14 36z" />
    <glyph glyph-name="ring" unicode="&#x2da;" horiz-adv-x="240" 
d="M180 650q0 25 -17.5 42t-42.5 17t-42.5 -17t-17.5 -42t17.5 -42t42.5 -17t42.5 17t17.5 42zM216 650q0 -40 -28.5 -67.5t-67.5 -27.5t-67.5 27.5t-28.5 67.5q0 39 28.5 67t67.5 28t67.5 -28t28.5 -67z" />
    <glyph glyph-name="ogonek" unicode="&#x2db;" horiz-adv-x="240" 
d="M191 -141l19 -40q-36 -36 -90 -36q-36 0 -63 24t-27 61q0 66 89 138h48q-41 -41 -59 -67.5t-18 -53.5q0 -21 14.5 -34.5t35.5 -13.5q32 0 51 22z" />
    <glyph glyph-name="tilde" unicode="&#x2dc;" horiz-adv-x="240" 
d="M1 576h-43q18 104 92 104q27 0 73 -23q50 -23 67 -23q37 0 49 50h43q-18 -104 -92 -104q-23 0 -73 23q-44 23 -67 23q-37 0 -49 -50z" />
    <glyph glyph-name="hungarumlaut" unicode="&#x2dd;" horiz-adv-x="240" 
d="M316 708l-132 -144h-59l100 144h91zM116 708l-133 -144h-59l101 144h91z" />
    <glyph glyph-name="uni0394" unicode="&#x394;" horiz-adv-x="670" 
d="M657 0h-642l281 712h74zM561 62l-229 583l-226 -583h455z" />
    <glyph glyph-name="uni03A9" unicode="&#x3a9;" horiz-adv-x="744" 
d="M685 0h-251v181q89 15 136.5 78.5t47.5 155.5q0 107 -72.5 176t-179.5 69q-106 0 -179 -70t-73 -175q0 -91 48 -155.5t136 -78.5v-181h-251v58h197v82q-92 26 -144.5 102t-52.5 174q0 132 94 218.5t226 86.5q131 0 224.5 -86.5t93.5 -217.5q0 -99 -52 -175.5t-145 -101.5
v-82h197v-58z" />
    <glyph glyph-name="uni03BC" unicode="&#x3bc;" 
d="M72 -228v696h66v-259q0 -88 28 -124.5t99 -36.5q62 0 102 48t40 132v240h66v-365q0 -45 5 -103h-71v76h-2q-22 -37 -66.5 -62.5t-90.5 -25.5q-69 0 -110 29v-245h-66z" />
    <glyph glyph-name="pi" unicode="&#x3c0;" horiz-adv-x="563" 
d="M530 60v-49q-36 -17 -64 -17q-23 0 -38.5 7t-23.5 16t-12 27t-5 31t-1 36v298h-220v-409h-64v409h-70v59h494v-59h-76v-305q0 -18 1.5 -27.5t10.5 -18t26 -8.5q21 0 42 10z" />
    <glyph glyph-name="endash" unicode="&#x2013;" horiz-adv-x="500" 
d="M500 273v-66h-500v66h500z" />
    <glyph glyph-name="emdash" unicode="&#x2014;" horiz-adv-x="1000" 
d="M1000 273v-66h-1000v66h1000z" />
    <glyph glyph-name="quoteleft" unicode="&#x2018;" horiz-adv-x="260" 
d="M56 473l81 235h67l-67 -235h-81z" />
    <glyph glyph-name="quoteright" unicode="&#x2019;" horiz-adv-x="260" 
d="M204 708l-81 -235h-67l67 235h81z" />
    <glyph glyph-name="quotesinglbase" unicode="&#x201a;" horiz-adv-x="260" 
d="M204 95l-81 -235h-67l67 235h81z" />
    <glyph glyph-name="quotedblleft" unicode="&#x201c;" horiz-adv-x="519" 
d="M95 473l81 235h67l-67 -235h-81zM276 473l81 235h67l-67 -235h-81z" />
    <glyph glyph-name="quotedblright" unicode="&#x201d;" horiz-adv-x="519" 
d="M424 708l-81 -235h-67l67 235h81zM243 708l-81 -235h-67l67 235h81z" />
    <glyph glyph-name="quotedblbase" unicode="&#x201e;" horiz-adv-x="519" 
d="M424 95l-81 -235h-67l67 235h81zM243 95l-81 -235h-67l67 235h81z" />
    <glyph glyph-name="dagger" unicode="&#x2020;" 
d="M311 708v-204h204v-60h-204v-570h-66v570h-204v60h204v204h66z" />
    <glyph glyph-name="daggerdbl" unicode="&#x2021;" 
d="M311 708v-192h195v-60h-195v-330h195v-60h-195v-192h-66v192h-195v60h195v330h-195v60h195v192h66z" />
    <glyph glyph-name="bullet" unicode="&#x2022;" horiz-adv-x="500" 
d="M73 354q0 74 51.5 125.5t125.5 51.5t125.5 -51.5t51.5 -125.5t-51.5 -125.5t-125.5 -51.5t-125.5 51.5t-51.5 125.5z" />
    <glyph glyph-name="ellipsis" unicode="&#x2026;" horiz-adv-x="1000" 
d="M221 48q0 -22 -15.5 -38t-38.5 -16t-38.5 16t-15.5 38t15.5 38t38.5 16t38.5 -16t15.5 -38zM554 48q0 -22 -15.5 -38t-38.5 -16t-38.5 16t-15.5 38t15.5 38t38.5 16t38.5 -16t15.5 -38zM887 48q0 -22 -15.5 -38t-38.5 -16t-38.5 16t-15.5 38t15.5 38t38.5 16t38.5 -16
t15.5 -38z" />
    <glyph glyph-name="perthousand" unicode="&#x2030;" horiz-adv-x="1000" 
d="M331 566q0 -63 -45 -108.5t-108 -45.5t-108 45.5t-45 108.5t45 108.5t108 45.5t108 -45.5t45 -108.5zM277 566q0 41 -29 70.5t-70 29.5t-70 -29.5t-29 -70.5t29 -70.5t70 -29.5t70 29.5t29 70.5zM625 142q0 -63 -45 -108.5t-108 -45.5t-108 45.5t-45 108.5t45 108.5
t108 45.5t108 -45.5t45 -108.5zM571 142q0 41 -29 70.5t-70 29.5t-70 -29.5t-29 -70.5t29 -70.5t70 -29.5t70 29.5t29 70.5zM975 142q0 -63 -45 -108.5t-108 -45.5t-108 45.5t-45 108.5t45 108.5t108 45.5t108 -45.5t45 -108.5zM921 142q0 41 -29 70.5t-70 29.5t-70 -29.5
t-29 -70.5t29 -70.5t70 -29.5t70 29.5t29 70.5zM575 712l-450 -743l-52 27l451 743z" />
    <glyph glyph-name="guilsinglleft" unicode="&#x2039;" horiz-adv-x="315" 
d="M131 240l115 -176l-47 -33l-140 209l140 209l47 -33z" />
    <glyph glyph-name="guilsinglright" unicode="&#x203a;" horiz-adv-x="315" 
d="M184 240l-115 176l47 33l140 -209l-140 -209l-47 33z" />
    <glyph glyph-name="fraction" unicode="&#x2044;" horiz-adv-x="168" 
d="M-115 -32l-52 32l451 740l51 -31z" />
    <glyph glyph-name="Euro" unicode="&#x20ac;" 
d="M518 680l-21 -62q-53 39 -134 39q-150 0 -186 -182h283l-17 -56h-275q-3 -36 -3 -76q0 -17 2 -55h240l-18 -55h-216q32 -185 170 -185q39 0 73 18t52 46l47 -34q-27 -44 -75.5 -67t-105.5 -23q-103 0 -161 65.5t-75 179.5h-75l20 55h49q-2 38 -2 58q0 38 3 73h-69l20 56
h57q24 122 93.5 183.5t169.5 61.5q41 0 84.5 -12t69.5 -28z" />
    <glyph glyph-name="afii61289" unicode="&#x2113;" horiz-adv-x="500" 
d="M391 76l24 -35q-58 -55 -130 -55q-57 0 -92 32.5t-35 95.5v114l-58 -62h-2l-26 37l86 84v259q0 82 36.5 128.5t92.5 46.5q49 0 79.5 -34.5t30.5 -93.5q0 -142 -171 -318v-150q0 -47 22 -67t53 -20q44 0 88 38h2zM340 588q0 38 -15 61.5t-38 23.5q-25 0 -43 -30t-18 -86
v-222q114 132 114 253z" />
    <glyph glyph-name="trademark" unicode="&#x2122;" horiz-adv-x="1000" 
d="M401 708v-54h-133v-358h-60v358h-136v54h329zM928 708v-412h-60v346h-2l-139 -346h-39l-139 346h-2v-346h-60v412h93l129 -316l129 316h90z" />
    <glyph glyph-name="Omega" unicode="&#x2126;" horiz-adv-x="744" 
d="M685 0h-251v181q89 15 136.5 78.5t47.5 155.5q0 107 -72.5 176t-179.5 69q-106 0 -179 -70t-73 -175q0 -91 48 -155.5t136 -78.5v-181h-251v58h197v82q-92 26 -144.5 102t-52.5 174q0 132 94 218.5t226 86.5q131 0 224.5 -86.5t93.5 -217.5q0 -99 -52 -175.5t-145 -101.5
v-82h197v-58z" />
    <glyph glyph-name="estimated" unicode="&#x212e;" horiz-adv-x="604" 
d="M561 259h-404v-181q59 -59 145 -59q63 0 109 28.5t84 91.5l35 -21q-46 -73 -98 -104t-130 -31q-115 0 -186.5 79t-71.5 197q0 119 71 197.5t187 78.5q115 0 187 -77t72 -199zM157 295h291v145q-63 60 -147 60t-144 -60v-145z" />
    <glyph glyph-name="partialdiff" unicode="&#x2202;" horiz-adv-x="496" 
d="M455 363q0 -50 -4.5 -96t-19.5 -99t-38.5 -91t-65.5 -63.5t-97 -25.5q-90 0 -144.5 66t-54.5 158q0 90 52.5 151.5t141.5 61.5q98 0 166 -84q0 9 0.5 26t0.5 26q0 46 -9 90.5t-28 87t-56 69t-86 26.5q-52 0 -112 -46l-36 43q67 58 145 58q68 0 118.5 -33t76.5 -88.5
t38 -114t12 -122.5zM386 278q-68 91 -155 91q-65 0 -101 -46t-36 -113q0 -66 36.5 -117.5t100.5 -51.5q41 0 72 23.5t47.5 61.5t25 75.5t10.5 76.5z" />
    <glyph glyph-name="Delta" unicode="&#x2206;" horiz-adv-x="670" 
d="M657 0h-642l281 712h74zM561 62l-229 583l-226 -583h455z" />
    <glyph glyph-name="product" unicode="&#x220f;" horiz-adv-x="711" 
d="M641 -214h-66v938h-438v-938h-66v1000h570v-1000z" />
    <glyph glyph-name="summation" unicode="&#x2211;" horiz-adv-x="604" 
d="M578 -214h-553v55l329 448l-315 441v56h527v-62h-442l309 -435l-328 -442h473v-61z" />
    <glyph glyph-name="minus" unicode="&#x2212;" horiz-adv-x="666" 
d="M588 333v-60h-510v60h510z" />
    <glyph glyph-name="uni2215" unicode="&#x2215;" horiz-adv-x="168" 
d="M-115 -32l-52 32l451 740l51 -31z" />
    <glyph glyph-name="uni2219" unicode="&#x2219;" horiz-adv-x="278" 
d="M193 314q0 -22 -15.5 -38t-38.5 -16t-38.5 16t-15.5 38t15.5 38t38.5 16t38.5 -16t15.5 -38z" />
    <glyph glyph-name="radical" unicode="&#x221a;" horiz-adv-x="493" 
d="M502 786l-210 -1000h-66l-164 340l-46 -22l-24 50l100 48l158 -332l189 916h63z" />
    <glyph glyph-name="infinity" unicode="&#x221e;" horiz-adv-x="741" 
d="M700 252q0 -63 -38.5 -105.5t-101.5 -42.5q-52 0 -95.5 28.5t-93.5 78.5q-10 -8 -33.5 -28.5t-36.5 -30.5t-34 -23.5t-42 -19t-44 -5.5q-62 0 -101 41t-39 104t38 105.5t100 42.5q28 0 53.5 -8.5t54.5 -30.5t40.5 -32t43.5 -41l22 22t25 23.5t23 19.5t27 20l26.5 13.5
t31.5 11.5t32 3q63 0 102.5 -41t39.5 -105zM643 249q0 40 -21.5 66t-61.5 26q-16 0 -32.5 -5.5t-34 -18l-28.5 -21t-31 -26t-25 -22.5q3 -3 13 -11.5l14 -12l13.5 -11.5t15 -11.5l15 -10t16 -10t16 -8t17 -6.5t16.5 -3.5t18 -1.5q37 0 58.5 24.5t21.5 62.5zM333 249
q-3 2 -8 7q-28 25 -45.5 39t-47.5 29.5t-54 15.5q-37 0 -58.5 -26.5t-21.5 -63.5q0 -39 22.5 -63.5t61.5 -24.5q57 0 151 87z" />
    <glyph glyph-name="integral" unicode="&#x222b;" horiz-adv-x="543" 
d="M406 736q0 -34 -37 -34q-13 0 -21 6t-11.5 14t-8.5 14t-11 6q-10 0 -17 -9.5t-10.5 -25.5t-5.5 -34t-2.5 -39t0 -36.5l1 -30t0.5 -16.5v-504q0 -122 -16 -173q-28 -87 -106 -87q-24 0 -42 12t-18 35q0 14 9.5 23t23.5 9q15 0 23.5 -9.5t14 -19t12.5 -9.5q32 0 32 159
l1 21v495q0 8 -1 43.5t0 53.5t3.5 52t10.5 53t20.5 40t34.5 31t51 10q27 0 48.5 -12.5t21.5 -37.5z" />
    <glyph glyph-name="approxequal" unicode="&#x2248;" horiz-adv-x="666" 
d="M553 402h43q-7 -59 -37.5 -98t-85.5 -39q-46 0 -145 37q-93 36 -133 36q-32 0 -52.5 -23.5t-26.5 -56.5h-45q7 59 37.5 99t86.5 40q50 0 143 -36q99 -37 136 -37q63 0 79 78zM552 232h44q-7 -59 -37.5 -98.5t-86.5 -39.5q-49 0 -144 37q-93 36 -133 36q-32 0 -52.5 -23.5
t-26.5 -56.5h-45q22 140 123 140q47 0 144 -36q95 -37 136 -37q62 0 78 78z" />
    <glyph glyph-name="notequal" unicode="&#x2260;" horiz-adv-x="666" 
d="M584 120h-287l-76 -144l-52 27l62 117h-149v60h181l68 130h-249v60h282l77 147l52 -28l-63 -119h154v-60h-186l-69 -130h255v-60z" />
    <glyph glyph-name="lessequal" unicode="&#x2264;" horiz-adv-x="666" 
d="M584 108l-502 188v65l502 189v-65l-419 -157l419 -155v-65zM584 6h-502v59h502v-59z" />
    <glyph glyph-name="greaterequal" unicode="&#x2265;" horiz-adv-x="666" 
d="M584 296l-502 -188v65l420 155l-420 157v65l502 -189v-65zM584 6h-502v59h502v-59z" />
    <glyph glyph-name="lozenge" unicode="&#x25ca;" horiz-adv-x="593" 
d="M498 356l-171 -391h-63l-169 391l169 391h63zM433 356l-137 325l-136 -325l136 -325z" />
    <glyph glyph-name="grave.cap" unicode="&#xe300;" horiz-adv-x="240" 
d="M122 760l-132 144h91l100 -144h-59z" />
    <glyph glyph-name="acute.cap" unicode="&#xe301;" horiz-adv-x="240" 
d="M250 904l-132 -144h-59l100 144h91z" />
    <glyph glyph-name="circumflex.cap" unicode="&#xe302;" horiz-adv-x="240" 
d="M160 904l109 -144h-66l-83 108l-83 -108h-66l109 144h80z" />
    <glyph glyph-name="caron.cap" unicode="&#xe303;" horiz-adv-x="240" 
d="M269 904l-109 -144h-80l-109 144h66l83 -108l83 108h66z" />
    <glyph glyph-name="tilde.cap" unicode="&#xe304;" horiz-adv-x="240" 
d="M1 771h-43q16 104 92 104q27 0 73 -23q50 -23 67 -23q35 0 49 50h43q-16 -104 -92 -104q-23 0 -73 23q-44 23 -67 23q-35 0 -49 -50z" />
    <glyph glyph-name="dieresis.cap" unicode="&#xe305;" horiz-adv-x="240" 
d="M165 822q0 21 14 36t37 15t37 -15t14 -36t-14 -36t-37 -15t-37 15t-14 36zM-27 822q0 21 14 36t37 15t37 -15t14 -36t-14 -36t-37 -15t-37 15t-14 36z" />
    <glyph glyph-name="macron.cap" unicode="&#xe306;" horiz-adv-x="240" 
d="M255 845v-54h-270v54h270z" />
    <glyph glyph-name="breve.cap" unicode="&#xe307;" horiz-adv-x="240" 
d="M223 898h44q-4 -62 -44 -97t-103 -35t-103 35t-44 97h44q7 -38 35 -58t68 -20t68 20t35 58z" />
    <glyph glyph-name="ring.cap" unicode="&#xe308;" horiz-adv-x="240" 
d="M180 835q0 25 -17.5 42t-42.5 17t-42.5 -17t-17.5 -42t17.5 -42t42.5 -17t42.5 17t17.5 42zM216 835q0 -40 -28.5 -67.5t-67.5 -27.5t-67.5 27.5t-28.5 67.5q0 39 28.5 67t67.5 28t67.5 -28t28.5 -67z" />
    <glyph glyph-name="hungarumlaut.cap" unicode="&#xe309;" horiz-adv-x="240" 
d="M336 904l-132 -144h-59l100 144h91zM136 904l-133 -144h-59l101 144h91z" />
    <glyph glyph-name="dotaccent.cap" unicode="&#xe30a;" horiz-adv-x="240" 
d="M69 817q0 21 14 36t37 15t37 -15t14 -36t-14 -36t-37 -15t-37 15t-14 36z" />
    <glyph glyph-name="caron.alt" unicode="&#xe30b;" horiz-adv-x="240" 
d="M219 708l-76 -185h-57l62 185h71z" />
    <glyph glyph-name="commaaccent" unicode="&#xe30c;" horiz-adv-x="240" 
d="M181 -45l-76 -185h-57l62 185h71z" />
    <glyph glyph-name="commaaccent.alt" unicode="&#xe30d;" horiz-adv-x="240" 
d="M96 564l76 185h57l-62 -185h-71z" />
    <glyph glyph-name="uniF8FF" unicode="&#xf8ff;" horiz-adv-x="512" 
d="M278 117h-56v67h56v-67zM271 234h-46l-2 17q0 56 13 81q15 28 46 59q30 28 40 45.5t10 37.5q0 36 -22.5 60.5t-53.5 24.5q-71 0 -82 -95l-50 8q6 69 42 103t93 34q55 0 89.5 -36t34.5 -95q0 -34 -13 -60t-50 -60q-37 -33 -43 -52q-6 -20 -6 -72zM50 50h412v617h-412v-617
zM0 718h512v-718h-512v718z" />
    </font>
</defs>
</svg>
